<svg width="951" height="1569" viewBox="0 0 951 1569" fill="none" xmlns="http://www.w3.org/2000/svg">
<path d="M653.417 1664.36C365.053 1849.82 394.469 1585.55 445.223 1430.24C368.015 1395 275.787 1299.21 524.539 1197.9C835.478 1071.27 536.323 1036.82 172.419 825.111C-191.484 613.398 470.518 640.458 794.922 470.836C1119.33 301.213 562.53 -45.8883 831.643 -278.084C1100.76 -510.28 1119.92 -386.41 1067.63 -21.7811C1025.79 269.922 1508.28 255.824 1754.76 212.312C1894.43 404.395 2036.58 805.207 1487.75 871.787C801.721 955.011 846.806 709.232 1072.3 1033.73C1297.79 1358.24 1013.87 1432.54 653.417 1664.36Z" stroke="url(#paint0_linear_1_819)"/>
<path d="M646.765 1665.89C358.044 1850.16 388.335 1586.23 439.571 1431.23C362.557 1395.75 270.746 1299.71 519.604 1199.37C830.678 1073.95 531.928 1038.48 169.097 825.651C-193.733 612.825 467.54 642.218 792.212 473.897C1116.88 305.576 561.809 -43.2076 831.456 -274.245C1101.1 -505.283 1119.83 -381.451 1066.34 -17.3231C1023.55 273.979 1505.62 261.611 1752.01 219.014C1890.89 411.429 2031.53 812.4 1483.01 876.969C797.351 957.679 843.232 712.272 1067.4 1037.3C1291.57 1362.32 1007.67 1435.55 646.765 1665.89Z" stroke="url(#paint1_linear_1_819)"/>
<path d="M640.127 1667.4C351.054 1850.49 382.218 1586.89 433.934 1432.21C357.116 1396.48 265.721 1300.2 514.683 1200.84C825.885 1076.64 527.544 1040.12 165.789 826.191C-195.965 612.258 464.572 643.98 789.506 476.96C1114.44 309.94 561.092 -40.5182 831.27 -270.396C1101.45 -500.274 1119.73 -376.483 1065.05 -12.8603C1021.3 278.038 1502.96 267.396 1749.25 225.713C1887.34 418.456 2026.48 819.582 1478.26 882.141C792.987 960.341 839.663 715.31 1062.51 1040.85C1285.35 1366.39 1001.47 1438.55 640.127 1667.4Z" stroke="url(#paint2_linear_1_819)"/>
<path d="M633.496 1668.91C344.076 1850.8 376.11 1587.55 428.305 1433.18C351.683 1397.22 260.705 1300.69 509.767 1202.3C821.094 1079.31 523.165 1041.77 162.49 826.736C-198.185 611.701 461.607 645.746 786.799 480.027C1111.99 314.308 560.374 -37.8167 831.076 -266.534C1101.78 -495.252 1119.62 -371.503 1063.75 -8.38901C1019.05 282.102 1500.28 273.184 1746.48 232.413C1883.78 425.481 2021.41 826.755 1473.51 887.309C788.625 963.002 836.093 718.349 1057.61 1044.4C1279.12 1370.46 995.27 1441.54 633.496 1668.91Z" stroke="url(#paint3_linear_1_819)"/>
<path d="M626.875 1670.4C337.113 1851.11 370.016 1588.2 422.687 1434.15C346.262 1397.94 255.702 1301.18 504.86 1203.76C816.307 1081.99 518.793 1043.42 159.201 827.285C-200.391 611.153 458.649 647.516 784.094 483.098C1109.54 318.68 559.656 -35.1028 830.88 -262.659C1102.1 -490.215 1119.51 -366.51 1062.45 -3.90906C1016.8 286.171 1497.59 278.973 1743.69 239.114C1880.2 432.503 2016.33 833.92 1468.75 892.472C784.267 965.662 832.526 721.39 1052.71 1047.95C1272.9 1374.51 989.078 1444.52 626.875 1670.4Z" stroke="url(#paint4_linear_1_819)"/>
<path d="M620.264 1671.89C330.164 1851.41 363.934 1588.84 417.081 1435.11C340.854 1398.67 250.711 1301.66 499.962 1205.22C811.525 1084.66 514.43 1045.06 155.923 827.837C-202.583 610.612 455.697 649.289 781.39 486.172C1107.08 323.054 558.94 -32.3787 830.679 -258.773C1102.42 -485.166 1119.38 -361.506 1061.14 0.577087C1014.54 290.244 1494.9 284.763 1740.9 245.814C1876.62 439.521 2011.24 841.074 1463.98 897.627C779.914 968.318 828.96 724.43 1047.82 1051.49C1266.68 1378.55 982.89 1447.49 620.264 1671.89Z" stroke="url(#paint5_linear_1_819)"/>
<path d="M613.664 1673.37C323.231 1851.7 357.865 1589.48 411.487 1436.07C335.458 1399.39 245.734 1302.15 495.073 1206.67C806.748 1087.32 510.075 1046.71 152.657 828.395C-204.761 610.082 452.751 651.068 778.687 489.251C1104.62 327.434 558.224 -29.6415 830.475 -254.872C1102.73 -480.103 1119.25 -356.489 1059.82 5.07278C1012.28 294.322 1492.19 290.556 1738.09 252.516C1873.01 446.538 2006.13 848.222 1459.21 902.779C775.565 970.974 825.397 727.471 1042.93 1055.03C1260.46 1382.58 976.707 1450.45 613.664 1673.37Z" stroke="url(#paint6_linear_1_819)"/>
<path d="M607.075 1674.83C316.312 1851.98 351.81 1590.11 405.904 1437.03C330.073 1400.1 240.769 1302.63 490.194 1208.12C801.975 1089.99 505.728 1048.35 149.401 828.953C-206.925 609.558 449.812 652.848 775.986 492.331C1102.16 331.814 557.51 -26.8954 830.268 -250.962C1103.03 -475.028 1119.11 -351.463 1058.51 9.57333C1010.02 298.403 1489.48 296.347 1735.27 259.215C1869.4 453.549 2001.02 855.358 1454.44 907.921C771.219 973.625 821.837 730.511 1038.04 1058.56C1254.24 1386.6 970.528 1453.4 607.075 1674.83Z" stroke="url(#paint7_linear_1_819)"/>
<path d="M600.495 1676.29C309.409 1852.25 345.767 1590.73 400.332 1437.97C324.701 1400.81 235.816 1303.1 485.323 1209.56C797.206 1092.64 501.388 1049.99 146.157 829.516C-209.074 609.044 446.878 654.632 773.286 495.415C1099.69 336.198 556.797 -24.1377 830.056 -247.039C1103.32 -469.941 1118.96 -346.426 1057.18 14.0816C1007.76 302.488 1486.76 302.139 1732.44 265.914C1865.78 460.556 1995.89 862.484 1449.66 913.058C766.879 976.274 818.278 733.551 1033.15 1062.08C1248.02 1390.61 964.354 1456.34 600.495 1676.29Z" stroke="url(#paint8_linear_1_819)"/>
<path d="M593.923 1677.74C302.517 1852.51 339.734 1591.34 394.769 1438.92C319.338 1401.52 230.873 1303.58 480.458 1211.01C792.439 1095.3 497.053 1051.63 142.92 830.084C-211.213 608.54 443.948 656.423 770.584 498.505C1097.22 340.587 556.081 -21.3663 829.838 -243.102C1103.59 -464.838 1118.8 -341.375 1055.85 18.5998C1005.49 306.579 1484.03 307.935 1729.59 272.615C1862.13 467.563 1990.75 869.604 1444.88 918.19C762.539 978.923 814.718 736.594 1028.26 1065.6C1241.79 1394.61 958.181 1459.28 593.923 1677.74Z" stroke="url(#paint9_linear_1_819)"/>
<path d="M587.365 1679.17C295.643 1852.75 333.718 1591.95 389.22 1439.85C313.991 1402.22 225.946 1304.05 475.606 1212.45C787.68 1097.95 492.73 1053.26 139.697 830.653C-213.335 608.043 441.028 658.214 767.886 501.595C1094.75 344.976 555.369 -18.5871 829.619 -239.156C1103.87 -459.725 1118.64 -336.316 1054.52 23.1217C1003.22 310.672 1481.29 313.728 1726.74 279.312C1858.48 474.562 1985.6 876.711 1440.09 923.313C758.206 981.566 811.164 739.634 1023.37 1069.11C1235.57 1398.6 952.017 1462.2 587.365 1679.17Z" stroke="url(#paint10_linear_1_819)"/>
<path d="M580.817 1680.6C288.785 1852.99 327.714 1592.55 383.683 1440.78C308.655 1402.91 221.032 1304.52 470.762 1213.88C782.925 1100.59 488.414 1054.9 136.486 831.228C-215.443 607.556 438.113 660.01 765.19 504.69C1092.27 349.37 554.658 -15.7947 829.396 -235.196C1104.13 -454.598 1118.47 -331.243 1053.18 27.6531C1000.95 314.77 1478.54 319.524 1723.87 286.012C1854.82 481.559 1980.44 883.811 1435.3 928.432C753.878 984.21 807.612 742.676 1018.48 1072.62C1229.36 1402.57 945.857 1465.11 580.817 1680.6Z" stroke="url(#paint11_linear_1_819)"/>
<path d="M574.276 1682.02C281.938 1853.22 321.72 1593.15 378.154 1441.71C303.328 1403.61 216.127 1304.98 465.925 1215.32C778.172 1103.23 484.103 1056.53 133.282 831.805C-217.54 607.076 435.201 661.809 762.492 507.788C1089.78 353.766 553.945 -12.9925 829.166 -231.226C1104.39 -449.46 1118.29 -326.161 1051.84 32.1904C998.673 318.872 1475.79 325.32 1720.99 292.709C1851.14 488.552 1975.26 890.899 1430.5 933.544C749.551 986.849 804.058 745.717 1013.6 1076.13C1223.14 1406.54 939.698 1468.02 574.276 1682.02Z" stroke="url(#paint12_linear_1_819)"/>
<path d="M567.749 1683.43C275.11 1853.44 315.743 1593.73 372.64 1442.63C298.017 1404.29 211.238 1305.45 461.099 1216.75C773.426 1105.87 479.803 1058.17 130.092 832.386C-219.62 606.606 432.299 663.612 759.799 510.889C1087.3 358.165 553.235 -10.1788 828.935 -227.244C1104.64 -444.308 1118.1 -321.068 1050.49 36.7349C996.396 322.977 1473.02 331.116 1718.1 299.405C1847.46 495.541 1970.08 897.979 1425.7 938.649C745.231 989.486 800.51 748.758 1008.72 1079.63C1216.92 1410.49 933.548 1470.91 567.749 1683.43Z" stroke="url(#paint13_linear_1_819)"/>
<path d="M561.229 1684.83C268.293 1853.65 309.775 1594.31 367.133 1443.54C292.715 1404.98 206.358 1305.91 456.28 1218.17C768.682 1108.51 475.508 1059.8 126.909 832.971C-221.69 606.145 429.4 665.419 757.103 513.993C1084.81 362.567 552.523 -7.354 828.697 -223.249C1104.87 -439.144 1117.9 -315.963 1049.13 41.2867C994.112 327.087 1470.25 336.913 1715.19 306.102C1843.76 502.526 1964.88 905.048 1420.9 943.747C740.913 992.121 796.961 751.8 1003.83 1083.12C1210.7 1414.44 927.399 1473.79 561.229 1684.83Z" stroke="url(#paint14_linear_1_819)"/>
<path d="M554.72 1686.21C261.492 1853.85 303.821 1594.89 361.639 1444.45C287.424 1405.65 201.491 1306.36 451.469 1219.6C763.942 1111.14 471.22 1061.43 123.737 833.56C-223.746 605.693 426.506 667.23 754.408 517.101C1082.31 366.973 551.811 -4.5175 828.455 -219.242C1105.1 -433.967 1117.7 -310.847 1047.77 45.8461C991.826 331.201 1467.46 342.712 1712.28 312.798C1840.04 509.507 1959.67 912.109 1416.08 948.84C736.598 994.754 793.414 754.842 998.95 1086.61C1204.49 1418.37 921.255 1476.67 554.72 1686.21Z" stroke="url(#paint15_linear_1_819)"/>
<path d="M548.224 1687.59C254.709 1854.04 297.882 1595.46 356.159 1445.36C282.15 1406.33 196.64 1306.82 446.671 1221.02C759.21 1113.76 466.944 1063.06 120.579 834.153C-225.785 605.25 423.622 669.044 751.718 520.213C1079.81 371.381 551.103 -1.67017 828.212 -215.224C1105.32 -428.777 1117.48 -305.721 1046.4 50.4124C989.54 335.319 1464.68 348.51 1709.35 319.493C1836.32 516.484 1954.46 919.159 1411.27 953.926C732.291 997.385 789.872 757.884 994.072 1090.09C1198.27 1422.3 915.119 1479.53 548.224 1687.59Z" stroke="url(#paint16_linear_1_819)"/>
<path d="M541.736 1688.97C247.937 1854.22 291.954 1596.02 350.687 1446.26C276.884 1407 191.798 1307.28 441.878 1222.44C754.479 1116.39 462.672 1064.69 117.429 834.752C-227.814 604.817 420.741 670.864 749.025 523.329C1077.31 375.794 550.392 1.1899 827.961 -211.192C1105.53 -423.573 1117.26 -300.581 1045.03 54.9874C987.248 339.443 1461.87 354.311 1706.41 326.189C1832.58 523.459 1949.22 926.201 1406.45 959.007C727.984 1000.01 786.329 760.928 989.193 1093.57C1192.06 1426.21 908.984 1482.39 541.736 1688.97Z" stroke="url(#paint17_linear_1_819)"/>
<path d="M535.258 1690.33C241.181 1854.4 286.038 1596.57 345.226 1447.15C271.63 1407.67 186.968 1307.73 437.095 1223.85C749.753 1119 458.408 1066.31 114.289 835.353C-229.83 604.392 417.866 672.687 746.334 526.447C1074.8 380.208 549.682 4.05922 827.706 -207.15C1105.73 -418.359 1117.03 -295.433 1043.65 59.5675C984.953 343.568 1459.07 360.111 1703.46 332.882C1828.83 530.428 1943.98 933.232 1401.63 964.08C723.682 1002.64 782.789 763.971 984.316 1097.04C1185.84 1430.11 902.855 1485.24 535.258 1690.33Z" stroke="url(#paint18_linear_1_819)"/>
<path d="M528.791 1691.68C234.44 1854.56 280.136 1597.12 339.777 1448.04C266.388 1408.33 182.151 1308.18 432.32 1225.26C745.031 1121.62 454.152 1067.94 111.16 835.957C-231.832 603.976 414.996 674.512 743.644 529.568C1072.29 384.625 548.972 6.93929 827.447 -203.097C1105.92 -413.133 1116.79 -290.275 1042.27 64.1543C982.656 347.697 1456.25 365.91 1700.49 339.574C1825.07 537.392 1938.73 940.253 1396.8 969.146C719.384 1005.26 779.25 767.013 979.44 1100.51C1179.63 1434 896.73 1488.08 528.791 1691.68Z" stroke="url(#paint19_linear_1_819)"/>
<path d="M522.334 1693.02C227.714 1854.71 274.246 1597.66 334.34 1448.93C261.158 1408.99 177.346 1308.62 427.554 1226.67C740.314 1124.23 449.903 1069.56 108.041 836.567C-233.821 603.571 412.133 676.344 740.954 532.695C1069.78 389.046 548.262 9.83232 827.184 -199.03C1106.11 -407.892 1116.54 -285.103 1040.88 68.75C980.355 351.833 1453.42 371.712 1697.52 346.267C1821.29 544.354 1933.46 947.265 1391.96 974.208C715.091 1007.89 775.713 770.058 974.565 1103.97C1173.42 1437.89 890.61 1490.9 522.334 1693.02Z" stroke="url(#paint20_linear_1_819)"/>
<path d="M515.888 1694.35C221.004 1854.86 268.37 1598.2 328.913 1449.81C255.94 1409.64 172.554 1309.07 422.798 1228.08C735.602 1126.84 445.662 1071.18 104.933 837.179C-235.796 603.173 409.275 678.177 738.266 535.822C1067.26 393.468 547.553 12.7344 826.916 -194.954C1106.28 -402.642 1116.28 -279.923 1039.49 73.3506C978.051 355.969 1450.58 377.512 1694.53 352.956C1817.5 551.31 1928.19 954.265 1387.13 979.261C710.801 1010.5 772.178 773.1 969.693 1107.43C1167.21 1441.76 884.495 1493.72 515.888 1694.35Z" stroke="url(#paint21_linear_1_819)"/>
<path d="M509.453 1695.68C214.308 1854.99 262.506 1598.73 323.499 1450.68C250.735 1410.3 167.775 1309.51 418.05 1229.48C730.893 1129.44 441.429 1072.81 101.835 837.798C-237.759 602.787 406.423 680.017 735.579 538.956C1064.73 397.895 546.843 15.6502 826.643 -190.863C1106.44 -397.376 1116.02 -274.73 1038.09 77.9608C975.744 360.113 1447.74 383.316 1691.53 359.648C1813.7 558.264 1922.9 961.259 1382.28 984.31C706.516 1013.12 768.645 776.146 964.821 1110.88C1161 1445.62 878.384 1496.53 509.453 1695.68Z" stroke="url(#paint22_linear_1_819)"/>
<path d="M503.032 1696.99C207.631 1855.12 256.66 1599.25 318.099 1451.55C245.544 1410.94 163.011 1309.95 413.314 1230.88C726.193 1132.04 437.207 1074.43 98.7516 838.419C-239.704 602.409 403.58 681.858 732.896 542.091C1062.21 402.324 546.137 18.5751 826.37 -186.762C1106.6 -392.1 1115.75 -269.528 1036.69 82.5757C973.438 364.259 1444.89 389.117 1688.52 366.336C1809.9 565.212 1917.6 968.24 1377.44 989.35C702.238 1015.74 765.117 779.19 959.955 1114.33C1154.79 1449.47 872.283 1499.33 503.032 1696.99Z" stroke="url(#paint23_linear_1_819)"/>
<path d="M496.618 1698.3C200.966 1855.24 250.822 1599.77 312.707 1452.42C240.363 1411.58 158.257 1310.39 408.585 1232.28C721.494 1134.63 432.99 1076.05 95.6749 839.044C-241.64 602.039 400.74 683.704 730.21 545.229C1059.68 406.754 545.428 21.5104 826.088 -182.651C1106.75 -386.812 1115.46 -264.316 1035.28 87.1971C971.125 368.407 1442.03 394.919 1685.5 373.023C1806.07 572.155 1912.29 975.211 1372.59 994.384C697.961 1018.35 761.588 782.234 955.087 1117.77C1148.59 1453.3 866.182 1502.12 496.618 1698.3Z" stroke="url(#paint24_linear_1_819)"/>
<defs>
<linearGradient id="paint0_linear_1_819" x1="389.844" y1="1847.82" x2="1007.34" y2="104.316" gradientUnits="userSpaceOnUse">
<stop stop-color="#F0E7FF"/>
<stop offset="1" stop-color="#5F3C9D"/>
</linearGradient>
<linearGradient id="paint1_linear_1_819" x1="389.844" y1="1847.82" x2="1007.34" y2="104.316" gradientUnits="userSpaceOnUse">
<stop stop-color="#F0E7FF"/>
<stop offset="1" stop-color="#5F3C9D"/>
</linearGradient>
<linearGradient id="paint2_linear_1_819" x1="389.844" y1="1847.82" x2="1007.34" y2="104.316" gradientUnits="userSpaceOnUse">
<stop stop-color="#F0E7FF"/>
<stop offset="1" stop-color="#5F3C9D"/>
</linearGradient>
<linearGradient id="paint3_linear_1_819" x1="389.844" y1="1847.82" x2="1007.34" y2="104.316" gradientUnits="userSpaceOnUse">
<stop stop-color="#F0E7FF"/>
<stop offset="1" stop-color="#5F3C9D"/>
</linearGradient>
<linearGradient id="paint4_linear_1_819" x1="389.844" y1="1847.82" x2="1007.34" y2="104.316" gradientUnits="userSpaceOnUse">
<stop stop-color="#F0E7FF"/>
<stop offset="1" stop-color="#5F3C9D"/>
</linearGradient>
<linearGradient id="paint5_linear_1_819" x1="389.844" y1="1847.82" x2="1007.34" y2="104.316" gradientUnits="userSpaceOnUse">
<stop stop-color="#F0E7FF"/>
<stop offset="1" stop-color="#5F3C9D"/>
</linearGradient>
<linearGradient id="paint6_linear_1_819" x1="389.844" y1="1847.82" x2="1007.34" y2="104.316" gradientUnits="userSpaceOnUse">
<stop stop-color="#F0E7FF"/>
<stop offset="1" stop-color="#5F3C9D"/>
</linearGradient>
<linearGradient id="paint7_linear_1_819" x1="389.844" y1="1847.82" x2="1007.34" y2="104.316" gradientUnits="userSpaceOnUse">
<stop stop-color="#F0E7FF"/>
<stop offset="1" stop-color="#5F3C9D"/>
</linearGradient>
<linearGradient id="paint8_linear_1_819" x1="389.844" y1="1847.82" x2="1007.34" y2="104.316" gradientUnits="userSpaceOnUse">
<stop stop-color="#F0E7FF"/>
<stop offset="1" stop-color="#5F3C9D"/>
</linearGradient>
<linearGradient id="paint9_linear_1_819" x1="389.844" y1="1847.82" x2="1007.34" y2="104.316" gradientUnits="userSpaceOnUse">
<stop stop-color="#F0E7FF"/>
<stop offset="1" stop-color="#5F3C9D"/>
</linearGradient>
<linearGradient id="paint10_linear_1_819" x1="389.844" y1="1847.82" x2="1007.34" y2="104.316" gradientUnits="userSpaceOnUse">
<stop stop-color="#F0E7FF"/>
<stop offset="1" stop-color="#5F3C9D"/>
</linearGradient>
<linearGradient id="paint11_linear_1_819" x1="389.844" y1="1847.82" x2="1007.34" y2="104.316" gradientUnits="userSpaceOnUse">
<stop stop-color="#F0E7FF"/>
<stop offset="1" stop-color="#5F3C9D"/>
</linearGradient>
<linearGradient id="paint12_linear_1_819" x1="389.844" y1="1847.82" x2="1007.34" y2="104.316" gradientUnits="userSpaceOnUse">
<stop stop-color="#F0E7FF"/>
<stop offset="1" stop-color="#5F3C9D"/>
</linearGradient>
<linearGradient id="paint13_linear_1_819" x1="389.844" y1="1847.82" x2="1007.34" y2="104.316" gradientUnits="userSpaceOnUse">
<stop stop-color="#F0E7FF"/>
<stop offset="1" stop-color="#5F3C9D"/>
</linearGradient>
<linearGradient id="paint14_linear_1_819" x1="389.844" y1="1847.82" x2="1007.34" y2="104.316" gradientUnits="userSpaceOnUse">
<stop stop-color="#F0E7FF"/>
<stop offset="1" stop-color="#5F3C9D"/>
</linearGradient>
<linearGradient id="paint15_linear_1_819" x1="389.844" y1="1847.82" x2="1007.34" y2="104.316" gradientUnits="userSpaceOnUse">
<stop stop-color="#F0E7FF"/>
<stop offset="1" stop-color="#5F3C9D"/>
</linearGradient>
<linearGradient id="paint16_linear_1_819" x1="389.844" y1="1847.82" x2="1007.34" y2="104.316" gradientUnits="userSpaceOnUse">
<stop stop-color="#F0E7FF"/>
<stop offset="1" stop-color="#5F3C9D"/>
</linearGradient>
<linearGradient id="paint17_linear_1_819" x1="389.844" y1="1847.82" x2="1007.34" y2="104.316" gradientUnits="userSpaceOnUse">
<stop stop-color="#F0E7FF"/>
<stop offset="1" stop-color="#5F3C9D"/>
</linearGradient>
<linearGradient id="paint18_linear_1_819" x1="389.844" y1="1847.82" x2="1007.34" y2="104.316" gradientUnits="userSpaceOnUse">
<stop stop-color="#F0E7FF"/>
<stop offset="1" stop-color="#5F3C9D"/>
</linearGradient>
<linearGradient id="paint19_linear_1_819" x1="389.844" y1="1847.82" x2="1007.34" y2="104.316" gradientUnits="userSpaceOnUse">
<stop stop-color="#F0E7FF"/>
<stop offset="1" stop-color="#5F3C9D"/>
</linearGradient>
<linearGradient id="paint20_linear_1_819" x1="389.844" y1="1847.82" x2="1007.34" y2="104.316" gradientUnits="userSpaceOnUse">
<stop stop-color="#F0E7FF"/>
<stop offset="1" stop-color="#5F3C9D"/>
</linearGradient>
<linearGradient id="paint21_linear_1_819" x1="389.844" y1="1847.82" x2="1007.34" y2="104.316" gradientUnits="userSpaceOnUse">
<stop stop-color="#F0E7FF"/>
<stop offset="1" stop-color="#5F3C9D"/>
</linearGradient>
<linearGradient id="paint22_linear_1_819" x1="389.844" y1="1847.82" x2="1007.34" y2="104.316" gradientUnits="userSpaceOnUse">
<stop stop-color="#F0E7FF"/>
<stop offset="1" stop-color="#5F3C9D"/>
</linearGradient>
<linearGradient id="paint23_linear_1_819" x1="389.844" y1="1847.82" x2="1007.34" y2="104.316" gradientUnits="userSpaceOnUse">
<stop stop-color="#F0E7FF"/>
<stop offset="1" stop-color="#5F3C9D"/>
</linearGradient>
<linearGradient id="paint24_linear_1_819" x1="389.844" y1="1847.82" x2="1007.34" y2="104.316" gradientUnits="userSpaceOnUse">
<stop stop-color="#F0E7FF"/>
<stop offset="1" stop-color="#5F3C9D"/>
</linearGradient>
</defs>
</svg>
