<svg width="123" height="34" viewBox="0 0 123 34" fill="none" xmlns="http://www.w3.org/2000/svg">
<path d="M0 16.6506V33.3011H3.11166H6.22333V27.0572V20.8132H10.6686H15.1138V27.0572V33.3011H18.0032H20.8926V16.6506V-7.33137e-06H18.0032H15.1138V6.93773V13.8755H10.6686H6.22333L6.17888 7.49275C6.13442 4.02388 6.13442 0.878772 6.17888 0.555011C6.22333 0.184999 5.37873 -7.33137e-06 3.11166 -7.33137e-06H0V16.6506Z" fill="white"/>
<path d="M21.8926 16.6506V33.3011H25.4488H29.005V16.6506V-7.33137e-06H25.4488H21.8926V16.6506Z" fill="white"/>
<path d="M30.0049 0.693772C30.0049 2.49758 43.4296 33.7636 44.2297 33.7636C44.5409 33.7636 48.5416 25.1609 55.165 10.2678L59.6991 -1.2517e-06H56.054H52.4089L49.1639 8.18653C47.3414 12.7192 45.6522 17.1131 45.4299 17.8994C45.1632 18.7319 44.8076 19.4257 44.5853 19.4257C44.0963 19.4257 42.4961 15.7255 39.0288 6.75273L36.4505 -1.2517e-06H33.25C30.6717 -1.2517e-06 30.0049 0.138753 30.0049 0.693772Z" fill="white"/>
<path d="M60.6992 16.6506V33.3011H70.4787H80.2582V30.0635V26.8259H73.1458H66.0334V23.1258V19.4256H72.7013H79.3691V16.188V12.9504H72.7013H66.0334V9.48156V6.0127H73.1458H80.2582V3.00634V-7.33137e-06H70.4787H60.6992V16.6506Z" fill="white"/>
<path d="M81.2582 16.6506V33.3011H84.5921H87.926V23.6345V13.968L92.5046 18.6856C105.44 32.1448 107.441 33.4861 113.264 33.2086C116.287 33.0699 116.998 32.8849 118.643 31.6823C121.621 29.4622 122.332 28.1672 122.51 24.4671C122.688 21.5995 122.554 21.0445 121.576 19.4719C120.065 17.0668 118.154 15.633 114.42 14.0605C112.642 13.2742 110.997 12.2104 110.463 11.5166C109.708 10.4066 109.663 10.1291 110.241 8.97279C110.641 8.09402 111.397 7.44649 112.508 7.07648C113.975 6.56771 114.553 6.61397 116.642 7.35399L119.043 8.27902L119.754 6.56771C121.221 2.86759 121.176 2.63633 118.287 1.6188C114.642 0.323754 110.463 0.416256 107.93 1.89631C104.373 3.93137 102.506 9.48156 103.973 13.783C104.551 15.5405 107.441 17.8531 111.575 19.8882C114.731 21.4145 115.931 22.6633 115.931 24.3283C115.931 26.6409 112.286 27.9822 109.885 26.5021C108.552 25.7159 103.084 20.4432 88.6817 6.1052C85.3033 2.77509 82.2806 -8.36858e-06 81.925 -8.36858e-06C81.3471 -8.36858e-06 81.2582 2.40507 81.2582 16.6506Z" fill="white"/>
</svg>
