<svg width="60" height="55" viewBox="0 0 60 55" fill="none" xmlns="http://www.w3.org/2000/svg">
<path fill-rule="evenodd" clip-rule="evenodd" d="M46.9373 39.0935L53.3719 45.5288C53.6519 45.8087 54.1091 45.8087 54.389 45.5288C54.669 45.2488 54.669 44.7916 54.389 44.5116L48.971 39.0935H56.0957C57.7164 39.0935 59.029 37.781 59.029 36.1602V5.14887C59.029 2.3042 56.7248 0 53.8801 0H5.14887C2.3042 0 0 2.3042 0 5.14887V36.1602C0 37.781 1.31256 39.0935 2.93329 39.0935H10.058L4.63995 44.5116C4.35999 44.7916 4.35999 45.2488 4.63995 45.5288C4.91992 45.8087 5.37714 45.8087 5.65711 45.5288L12.0923 39.0935H21.0433V49.4503C21.0433 52.295 23.3475 54.5992 26.1921 54.5992H32.8375C35.6822 54.5992 37.9864 52.295 37.9864 49.4503V39.0935H46.9373ZM38.737 22.2981C38.786 22.3344 38.835 22.3733 38.8867 22.4055C39.2137 22.6063 39.6031 22.6298 39.9536 22.4713L42.8459 21.1661L45.5006 22.9131C45.8698 23.1635 46.3458 23.1709 46.7238 22.9346C47.1085 22.7036 47.3126 22.2793 47.2643 21.8348L46.9185 18.6827L49.3986 16.7048C49.7451 16.4282 49.9028 15.981 49.7994 15.5493C49.6954 15.1122 49.3644 14.7839 48.9233 14.6926L45.8168 14.0494L44.7029 11.0772C44.5458 10.6576 44.1705 10.3756 43.7241 10.3407C43.2789 10.3058 42.8633 10.5253 42.6418 10.9134L41.0687 13.6741L37.8984 13.8185C37.4479 13.8393 37.0639 14.1058 36.8759 14.5127C36.6987 14.9256 36.786 15.3855 37.0867 15.7178L39.2177 18.069L38.3798 21.1299C38.261 21.5629 38.3953 22.0067 38.7363 22.2994L38.737 22.2981ZM38.4248 15.1559L41.4998 15.0162C41.7274 14.9995 41.9516 14.8773 42.0637 14.6718L43.5884 11.9903L44.6774 14.8779C44.7546 15.0995 44.9467 15.2593 45.1743 15.3063L48.1982 15.9307L45.7839 17.8549C45.6013 17.9999 45.5073 18.2302 45.5348 18.4618L45.8691 21.5287L43.2937 19.8348C43.0997 19.7072 42.8546 19.6864 42.6431 19.7858L39.8354 21.0527L40.6558 18.0791C40.7156 17.8502 40.6632 17.6132 40.5028 17.4366L38.4262 15.1552L38.4248 15.1559ZM22.096 15.3848C22.135 15.4318 22.1732 15.4815 22.2155 15.5251C22.4847 15.7991 22.8574 15.9146 23.2354 15.8447L26.3566 15.2714L28.5151 17.6038C28.8139 17.9354 29.2745 18.0563 29.6975 17.9173C30.1265 17.785 30.4266 17.4218 30.4857 16.9794L30.9059 13.8366L33.7875 12.5106C34.1904 12.3253 34.4502 11.9292 34.4536 11.4847C34.4569 11.0356 34.2145 10.6375 33.8084 10.4434L30.9469 9.07446L30.5776 5.92163C30.5253 5.47717 30.2292 5.11328 29.8042 4.97229C29.3806 4.83197 28.924 4.94476 28.6165 5.26837L26.4278 7.5719L23.3159 6.95221C22.8735 6.86426 22.4371 7.03076 22.1564 7.38123C21.8859 7.73908 21.8597 8.20703 22.0725 8.60181L23.5778 11.3948L22.0309 14.1656C21.812 14.5577 21.8355 15.0203 22.0967 15.3868L22.096 15.3848ZM23.5046 8.37622L26.5231 8.97778C26.748 9.01605 26.9951 8.9516 27.1529 8.77838L29.2758 6.54065L29.6404 9.60553C29.6625 9.83917 29.8102 10.0406 30.0197 10.14L32.8053 11.4706L30.0002 12.7597C29.7881 12.8571 29.6417 13.0578 29.6129 13.2894L29.2026 16.3469L27.1079 14.085C26.9501 13.9145 26.7172 13.8359 26.4882 13.8816L23.4589 14.4388L24.9682 11.7486C25.081 11.5405 25.087 11.2981 24.9736 11.0886L23.5046 8.37622ZM13.2894 27.0119C13.3499 27.0173 13.4123 27.0247 13.4734 27.0247C13.8574 27.0247 14.2012 26.8407 14.4167 26.5225L16.1985 23.8967L19.3749 23.9954C19.8207 24.0155 20.2302 23.7725 20.4283 23.373C20.6351 22.9742 20.5867 22.5062 20.3128 22.1531L18.3685 19.6481L19.446 16.6645C19.5964 16.2476 19.4971 15.7843 19.1829 15.4701C18.8653 15.1525 18.4114 15.0458 17.9885 15.1989L15.0048 16.2764L12.4999 14.3267C12.1467 14.0515 11.6788 14.0078 11.2806 14.2112C10.8832 14.414 10.6435 14.8188 10.6583 15.2653L10.763 18.441L8.13721 20.2228C7.76392 20.476 7.5766 20.9043 7.62897 21.3494C7.69409 21.7939 8.00897 22.1403 8.43933 22.2659L11.4854 23.1541L12.3737 26.2002C12.4992 26.6312 12.8456 26.9394 13.2894 27.0106V27.0119ZM9.28528 21.0896L11.8325 19.3615C12.0178 19.2278 12.1447 19.007 12.1326 18.7733L12.0286 15.6903L14.4677 17.5816C14.6497 17.73 14.8967 17.7656 15.1149 17.6863L18.018 16.6356L16.9673 19.5387C16.8881 19.7582 16.9277 20.0033 17.0727 20.1866L18.9626 22.6251L15.8817 22.5297C15.6494 22.5223 15.4298 22.6331 15.3016 22.8285L13.5728 25.3771L12.7154 22.4142C12.6462 22.188 12.4777 22.0134 12.2488 21.947L9.28528 21.0896ZM37.9857 37.6561V33.0013H57.5916V36.1589C57.5916 36.9854 56.9215 37.6554 56.095 37.6554L37.9857 37.6561ZM37.9857 28.5145L37.9851 27.8532C37.9851 25.0085 35.6809 22.7043 32.8362 22.7043H26.1908C23.3461 22.7043 21.0419 25.0085 21.0419 27.8532V31.5646H1.4361V5.14819C1.4361 3.09778 3.09711 1.43677 5.14752 1.43677H53.8795C55.9299 1.43677 57.5909 3.09778 57.5909 5.14819V31.5646H37.9851L37.9857 28.5145ZM21.0426 33.002V37.6567H2.93262C2.10614 37.6567 1.4361 36.9867 1.4361 36.1602V33.0027L21.0426 33.002ZM36.5483 49.4503C36.5483 51.5007 34.8873 53.1618 32.8369 53.1618H26.1915C24.1411 53.1618 22.48 51.5007 22.48 49.4503V27.8532C22.48 25.8027 24.1411 24.1417 26.1915 24.1417H32.8369C34.8873 24.1417 36.5483 25.8027 36.5483 27.8532V49.4503ZM29.5142 31.5646C26.977 31.5646 24.9192 33.6217 24.9192 36.1595C24.9192 38.6967 26.9763 40.7545 29.5142 40.7545C32.0513 40.7545 34.1091 38.6974 34.1091 36.1595C34.1091 33.6224 32.052 31.5646 29.5142 31.5646ZM26.3566 36.1595C26.3566 34.4166 27.7712 33.002 29.5142 33.002C31.2571 33.002 32.6717 34.4166 32.6717 36.1595C32.6717 37.9025 31.2571 39.3171 29.5142 39.3171C27.7712 39.3171 26.3566 37.9025 26.3566 36.1595Z" fill="#5D3A99"/>
<path fill-rule="evenodd" clip-rule="evenodd" d="M38.737 22.2981C38.786 22.3344 38.835 22.3733 38.8867 22.4055C39.2137 22.6063 39.6031 22.6298 39.9536 22.4713L42.8459 21.1661L45.5006 22.9131C45.8698 23.1635 46.3458 23.1709 46.7238 22.9346C47.1085 22.7036 47.3126 22.2793 47.2643 21.8348L46.9185 18.6827L49.3986 16.7048C49.7451 16.4282 49.9028 15.981 49.7994 15.5493C49.6954 15.1122 49.3644 14.7839 48.9233 14.6926L45.8168 14.0494L44.7029 11.0772C44.5458 10.6576 44.1705 10.3756 43.7241 10.3407C43.2789 10.3058 42.8633 10.5253 42.6418 10.9134L41.0687 13.6741L37.8984 13.8185C37.4479 13.8393 37.0639 14.1058 36.8759 14.5127C36.6987 14.9256 36.786 15.3855 37.0867 15.7178L39.2177 18.069L38.3798 21.1299C38.261 21.5629 38.3953 22.0067 38.7363 22.2994L38.737 22.2981ZM38.4248 15.1559L41.4998 15.0162C41.7274 14.9995 41.9516 14.8773 42.0637 14.6718L43.5884 11.9903L44.6774 14.8779C44.7546 15.0995 44.9467 15.2593 45.1743 15.3063L48.1982 15.9307L45.7839 17.8549C45.6013 17.9999 45.5073 18.2302 45.5348 18.4618L45.8691 21.5287L43.2937 19.8348C43.0997 19.7072 42.8546 19.6864 42.6431 19.7858L39.8354 21.0527L40.6558 18.0791C40.7156 17.8502 40.6632 17.6132 40.5028 17.4366L38.4262 15.1552L38.4248 15.1559ZM22.096 15.3848C22.135 15.4318 22.1732 15.4815 22.2155 15.5251C22.4847 15.7991 22.8574 15.9146 23.2354 15.8447L26.3566 15.2714L28.5151 17.6038C28.8139 17.9354 29.2745 18.0563 29.6975 17.9173C30.1265 17.785 30.4266 17.4218 30.4857 16.9794L30.9059 13.8366L33.7875 12.5106C34.1904 12.3253 34.4502 11.9292 34.4536 11.4847C34.4569 11.0356 34.2145 10.6375 33.8084 10.4434L30.9469 9.07446L30.5776 5.92163C30.5253 5.47717 30.2292 5.11328 29.8042 4.97229C29.3806 4.83197 28.924 4.94476 28.6165 5.26837L26.4278 7.5719L23.3159 6.95221C22.8735 6.86426 22.4371 7.03076 22.1564 7.38123C21.8859 7.73908 21.8597 8.20703 22.0725 8.60181L23.5778 11.3948L22.0309 14.1656C21.812 14.5577 21.8355 15.0203 22.0967 15.3868L22.096 15.3848ZM23.5046 8.37622L26.5231 8.97778C26.748 9.01605 26.9951 8.9516 27.1529 8.77838L29.2758 6.54065L29.6404 9.60553C29.6625 9.83917 29.8102 10.0406 30.0197 10.14L32.8053 11.4706L30.0002 12.7597C29.7881 12.8571 29.6417 13.0578 29.6129 13.2894L29.2026 16.3469L27.1079 14.085C26.9501 13.9145 26.7172 13.8359 26.4882 13.8816L23.4589 14.4388L24.9682 11.7486C25.081 11.5405 25.087 11.2981 24.9736 11.0886L23.5046 8.37622ZM13.2894 27.0119C13.3499 27.0173 13.4123 27.0247 13.4734 27.0247C13.8574 27.0247 14.2012 26.8407 14.4167 26.5225L16.1985 23.8967L19.3749 23.9954C19.8207 24.0155 20.2302 23.7725 20.4283 23.373C20.6351 22.9742 20.5867 22.5062 20.3128 22.1531L18.3685 19.6481L19.446 16.6645C19.5964 16.2476 19.4971 15.7843 19.1829 15.4701C18.8653 15.1525 18.4114 15.0458 17.9885 15.1989L15.0048 16.2764L12.4999 14.3267C12.1467 14.0515 11.6788 14.0078 11.2806 14.2112C10.8832 14.414 10.6435 14.8188 10.6583 15.2653L10.763 18.441L8.13721 20.2228C7.76392 20.476 7.5766 20.9043 7.62897 21.3494C7.69409 21.7939 8.00897 22.1403 8.43933 22.2659L11.4854 23.1541L12.3737 26.2002C12.4992 26.6312 12.8456 26.9394 13.2894 27.0106V27.0119ZM9.28528 21.0896L11.8325 19.3615C12.0178 19.2278 12.1447 19.007 12.1326 18.7733L12.0286 15.6903L14.4677 17.5816C14.6497 17.73 14.8967 17.7656 15.1149 17.6863L18.018 16.6356L16.9673 19.5387C16.8881 19.7582 16.9277 20.0033 17.0727 20.1866L18.9626 22.6251L15.8817 22.5297C15.6494 22.5223 15.4298 22.6331 15.3016 22.8285L13.5728 25.3771L12.7154 22.4142C12.6462 22.188 12.4777 22.0134 12.2488 21.947L9.28528 21.0896Z" fill="#13E7CF"/>
</svg>
