<svg width="55" height="56" viewBox="0 0 55 56" fill="none" xmlns="http://www.w3.org/2000/svg">
<path fill-rule="evenodd" clip-rule="evenodd" d="M48.7376 17.2582L38.2532 35.4277C38.0247 35.8088 37.5338 35.9407 37.1462 35.7227L33.4373 33.5813C33.1131 33.394 32.6935 33.5078 32.5072 33.8323C32.3209 34.1572 32.434 34.5753 32.7584 34.7626L36.4668 36.9038C36.796 37.0938 37.1645 37.1975 37.5451 37.1975C38.3204 37.1975 39.0383 36.7872 39.4272 36.1136L49.9195 17.9421C50.2112 17.4369 50.2825 16.8628 50.1377 16.2992L49.0362 12.1906C48.9383 11.8251 48.5708 11.6086 48.2042 11.7073C47.8435 11.8042 47.6303 12.1805 47.7209 12.54L48.8225 16.6491C48.8776 16.8698 48.8512 17.0609 48.7376 17.2577V17.2582ZM41.766 7.62437C41.7247 7.25358 41.7169 6.88406 41.7524 6.51252L41.7602 6.43121L45.1602 6.43096C45.6538 6.43096 46.0538 6.83145 46.054 7.32482L46.0566 16.9395C46.0566 17.1714 45.9798 17.3461 45.8167 17.5092L30.0927 33.2387C29.7811 33.5506 29.265 33.5503 28.9534 33.2387L19.2443 23.5293C18.9254 23.2167 18.9236 22.7009 19.2443 22.3893L34.9733 6.66028C35.1344 6.49943 35.3159 6.42542 35.543 6.42542L38.9862 6.42517C39.3578 6.42517 39.6732 6.11983 39.6732 5.74628C39.6732 5.37273 39.3578 5.06739 38.9862 5.06739L35.5432 5.06764C34.9585 5.06764 34.4261 5.28513 34.0122 5.69896L18.2827 21.4285C17.4377 22.2733 17.4387 23.6507 18.2827 24.4957L27.9755 34.2023C28.3888 34.6076 28.9265 34.8339 29.5067 34.8339C30.0856 34.8339 30.6334 34.6121 31.0429 34.2025L46.7725 18.473C47.1863 18.0592 47.4038 17.5268 47.4038 16.9421V7.32432C47.4038 6.08132 46.3954 5.07267 45.1521 5.07267H42.0474L42.0962 4.94983C42.3852 4.22362 42.8109 3.55908 43.3642 3.0058C44.4264 1.94354 45.834 1.35803 47.3363 1.35803C48.8386 1.35803 50.2465 1.94354 51.3085 3.0058C52.3705 4.06806 52.9562 5.47568 52.9562 6.97795C52.9562 8.47971 52.374 9.89086 51.3085 10.9504C51.0416 11.2157 51.0386 11.6464 51.308 11.9109C51.4368 12.0375 51.6105 12.1125 51.7918 12.1125C51.97 12.1125 52.1444 12.0413 52.2693 11.9119C53.5921 10.5944 54.3145 8.84345 54.3145 6.97795C54.3145 5.11723 53.5878 3.36097 52.2728 2.04448C50.9543 0.724452 49.2053 0 47.3393 0C45.4786 0 43.7221 0.72848 42.4059 2.04473C40.8074 3.64315 40.0913 5.92576 40.4628 8.14895L40.4719 8.20358L40.4271 8.2363C40.3171 8.31685 40.2144 8.40697 40.118 8.50338C39.6012 9.02016 39.3188 9.70408 39.3188 10.4348C39.3188 11.1613 39.604 11.8523 40.118 12.3663C40.6348 12.8831 41.3187 13.1655 42.0494 13.1655C42.7842 13.1655 43.4694 12.8858 43.9889 12.3663C45.0542 11.301 45.0613 9.55859 43.9892 8.49557C43.4666 7.97753 42.7857 7.69611 42.0494 7.69611C41.989 7.69611 41.9261 7.6956 41.8662 7.70341L41.7756 7.71524L41.7655 7.62437H41.766ZM41.5397 10.8723C41.7521 11.1902 42.1801 11.2605 42.4957 11.0528C42.8104 10.8456 42.8872 10.422 42.679 10.1111C42.4879 9.82592 42.323 9.5241 42.1866 9.20895L42.1194 9.05364L42.2858 9.0851C42.567 9.13847 42.8227 9.26634 43.0256 9.46998C43.5577 10.0041 43.5628 10.8816 43.0251 11.4135C42.7618 11.674 42.4172 11.813 42.0472 11.813C41.6822 11.813 41.3355 11.6718 41.077 11.4133C40.8173 11.1535 40.6773 10.8104 40.6773 10.4431C40.6773 10.2357 40.7264 10.0364 40.8092 9.84706L40.891 9.66003L40.9736 9.84656C41.1314 10.2035 41.323 10.5479 41.5397 10.8723ZM30.4403 27.686C30.501 27.6913 30.5632 27.6991 30.6241 27.6991C31.0082 27.6991 31.3518 27.5151 31.5675 27.1972L33.3492 24.5712L36.5254 24.6701C36.971 24.69 37.3805 24.4471 37.5789 24.0479C37.7858 23.6494 37.7377 23.1812 37.4636 22.828L35.5195 20.3232L36.5974 17.3398C36.7482 16.9227 36.6483 16.4593 36.3341 16.1451C36.0164 15.8274 35.5626 15.721 35.1394 15.8738L32.1558 16.9516L29.6509 15.002C29.2975 14.7269 28.8301 14.6829 28.4313 14.8868C28.0339 15.0899 27.7942 15.4944 27.8088 15.941L27.9133 19.1167L25.2876 20.8986C24.9143 21.1521 24.7268 21.58 24.7794 22.0253C24.8443 22.4696 25.1597 22.8162 25.5897 22.9418L28.636 23.8299L29.5241 26.8762C29.6497 27.3077 29.996 27.6153 30.4398 27.6865L30.4403 27.686ZM26.4365 21.7638L28.9834 20.0355C29.1686 19.902 29.2955 19.681 29.2834 19.4469L29.1795 16.3641L31.6186 18.255C31.8004 18.4033 32.0476 18.439 32.2658 18.36L35.1689 17.3096L34.1182 20.2127C34.0389 20.4319 34.0787 20.6771 34.2237 20.8603L36.1139 23.2985L33.0325 23.2034C32.8005 23.1961 32.5807 23.3071 32.4523 23.5019L30.7233 26.0508L29.8661 23.0878C29.7972 22.8613 29.6285 22.6871 29.3995 22.6209L26.436 21.7638H26.4365ZM15.2608 49.1769C17.598 48.2058 20.2466 48.2513 22.7286 48.4016C23.4407 48.4446 24.1521 48.5053 24.8632 48.5614C26.6557 48.7032 28.4605 48.8507 30.2598 48.8101C33.872 48.7288 36.1151 47.7386 39.2284 46.0895C40.1749 45.5881 41.1105 45.0595 42.0368 44.5216C43.1442 43.8787 44.2422 43.2169 45.3241 42.532C46.3201 41.9014 47.3157 41.2474 48.2642 40.5469C48.8119 40.1421 49.6109 39.5451 50.0237 39.0034C50.7617 38.0345 51.0089 36.716 50.1521 35.7418C49.7616 35.298 49.2056 35.035 48.6241 34.9592C47.8425 34.8573 47.0677 35.0889 46.3936 35.4765C45.7296 35.8584 45.0454 36.2156 44.3635 36.5642C43.4515 37.0304 42.531 37.4807 41.6056 37.9194C39.607 38.8667 37.5607 39.7819 35.4939 40.5691L35.3426 40.6267L35.3738 40.4679C35.5112 39.7706 35.3766 39.0615 35.0113 38.4523C34.4621 37.5358 33.5002 37.0002 32.4292 37.0341C30.3817 37.0341 28.3921 36.7912 26.4166 36.2571C24.8655 35.8377 23.4163 35.2567 21.9364 34.6428C19.6297 33.6855 17.4405 32.7443 14.9029 33.3585C13.4474 33.7109 12.1178 34.5197 10.9466 35.4312C9.2316 36.7663 7.67043 38.446 6.2608 40.0941L6.21599 40.1464L6.15381 40.1167C5.8452 39.969 5.50362 39.8899 5.16128 39.8899C4.53651 39.8899 3.94195 40.1364 3.50043 40.5781L0.195587 43.883C0.0682163 44.0103 0 44.187 0 44.3663C0 44.5498 0.0654474 44.7197 0.195587 44.8496L10.4081 55.0563C10.5353 55.1812 10.7069 55.2577 10.8864 55.2577C11.0626 55.2577 11.2378 55.1892 11.3654 55.0694L14.6695 51.7653C15.112 51.3228 15.3577 50.7305 15.3577 50.1045C15.3577 49.8261 15.3109 49.5522 15.212 49.2917L15.181 49.2104L15.2616 49.1769H15.2608ZM14.0042 50.0964C14.0042 50.3645 13.896 50.6097 13.7069 50.7987L10.8852 53.6205L1.63895 44.366L4.46074 41.5442C4.65054 41.3544 4.89521 41.2553 5.16304 41.2553C5.42131 41.2553 5.67454 41.3617 5.85729 41.5442L13.7163 49.3949C13.8993 49.5867 14.0045 49.8311 14.0042 50.0967V50.0964ZM49.1273 36.6397C49.5504 37.0998 49.2542 37.7568 48.9295 38.1787C48.604 38.6016 47.9248 39.0995 47.4944 39.4172C46.6599 40.0329 45.788 40.6113 44.9153 41.1712C42.8663 42.4859 40.7337 43.7453 38.5815 44.8836C35.6862 46.4148 33.5732 47.3711 30.2175 47.4438C28.4681 47.4818 26.7053 47.3343 24.9624 47.1943C24.2425 47.1367 23.5223 47.0778 22.8014 47.0348C19.9544 46.8646 17.0327 46.8588 14.3823 48.0663L14.3257 48.092L7.25811 41.0244L7.31198 40.9612C8.64434 39.4021 10.1287 37.7865 11.7486 36.5204C12.767 35.7239 13.9257 35.007 15.1954 34.7025C17.3984 34.1741 19.4069 35.0755 21.4061 35.9047C22.9411 36.5413 24.4413 37.1358 26.0501 37.5701C28.1451 38.1354 30.2619 38.3992 32.4317 38.3992H32.4647C33.0308 38.3703 33.5488 38.664 33.8406 39.1491C34.1376 39.6427 34.1434 40.2285 33.8489 40.7246C33.1033 41.9812 30.0882 41.9991 28.8467 41.946C27.6873 41.8964 26.5079 41.7456 25.3727 41.505C24.6351 41.3486 23.6632 41.111 22.9944 40.7581C22.6611 40.5821 22.2534 40.7173 22.0756 41.0461C21.8977 41.3756 22.0331 41.7912 22.3629 41.9633C23.1716 42.3852 24.2508 42.6599 25.1406 42.8459C26.3265 43.0938 27.5644 43.2516 28.7754 43.3038C29.0556 43.3158 29.3358 43.3254 29.6162 43.3254C30.8451 43.3254 32.2472 43.2006 33.3847 42.7235L33.3897 42.7213L33.395 42.7198C34.5373 42.3986 35.6774 41.9709 36.7794 41.5326C38.0946 41.0096 39.3955 40.4442 40.6833 39.8569C41.92 39.2931 43.1482 38.7071 44.3625 38.0969C45.2735 37.6393 46.1912 37.1673 47.0738 36.6571C47.4453 36.4424 47.8813 36.2855 48.3158 36.3024C48.612 36.314 48.9257 36.4121 49.1263 36.6392L49.1273 36.6397ZM10.3117 19.6327H16.9164C17.2889 19.6327 17.5953 19.3266 17.5953 18.9538C17.5953 18.581 17.2889 18.2749 16.9164 18.2749L10.3117 18.2747C9.93869 18.2747 9.6341 18.5815 9.63284 18.9538C9.63159 19.3279 9.93818 19.6327 10.3117 19.6327ZM12.5966 26.8256C12.2251 26.8256 11.9094 27.131 11.9094 27.5045C11.9094 27.8781 12.2251 28.1834 12.5966 28.1834L16.9194 28.1837C17.2922 28.1837 17.5983 27.8773 17.5983 27.5048C17.5983 27.1322 17.2919 26.8259 16.9194 26.8259L12.5966 26.8256ZM3.17923 19.6327H6.08887C6.46167 19.6327 6.76776 19.3266 6.76776 18.9538C6.76776 18.581 6.46142 18.2749 6.08887 18.2749L3.17923 18.2747C2.80668 18.2747 2.50034 18.581 2.50034 18.9536C2.50034 19.3261 2.80668 19.6327 3.17923 19.6327ZM7.6075 23.9099L14.7727 23.9097C15.1485 23.9097 15.4597 23.6084 15.4597 23.2308C15.4597 22.8532 15.1483 22.5519 14.7725 22.5519L7.60725 22.5494C7.2347 22.5494 6.92836 22.8557 6.92836 23.2283C6.92836 23.6021 7.23294 23.9099 7.60725 23.9099H7.6075Z" fill="#5D3A99"/>
<path fill-rule="evenodd" clip-rule="evenodd" d="M48.7376 17.2582L38.2532 35.4277C38.0247 35.8088 37.5338 35.9407 37.1462 35.7227L33.4373 33.5813C33.1131 33.394 32.6935 33.5078 32.5072 33.8323C32.3209 34.1572 32.434 34.5753 32.7584 34.7626L36.4668 36.9038C36.796 37.0938 37.1645 37.1975 37.5451 37.1975C38.3204 37.1975 39.0383 36.7872 39.4272 36.1136L49.9195 17.9421C50.2112 17.4369 50.2825 16.8628 50.1377 16.2992L49.0362 12.1906C48.9383 11.8251 48.5708 11.6086 48.2042 11.7073C47.8435 11.8042 47.6303 12.1805 47.7209 12.54L48.8225 16.6491C48.8776 16.8698 48.8512 17.0614 48.7376 17.2582ZM41.766 7.62437C41.7247 7.25358 41.7169 6.88406 41.7524 6.51252L41.7602 6.43121L45.1602 6.43096C45.6538 6.43096 46.0538 6.83145 46.054 7.32482L46.0566 16.9395C46.0566 17.1714 45.9798 17.3461 45.8167 17.5092L30.0927 33.2387C29.7811 33.5506 29.265 33.5503 28.9534 33.2387L19.2443 23.5293C18.9254 23.2167 18.9236 22.7009 19.2443 22.3893L34.9733 6.66028C35.1344 6.49943 35.3159 6.42542 35.543 6.42542L38.9862 6.42517C39.3578 6.42517 39.6732 6.11983 39.6732 5.74628C39.6732 5.37273 39.3578 5.06739 38.9862 5.06739L35.5432 5.06764C34.9585 5.06764 34.4261 5.28513 34.0122 5.69896L18.2827 21.4285C17.4377 22.2733 17.4387 23.6507 18.2827 24.4957L27.9755 34.2023C28.3888 34.6076 28.9265 34.8339 29.5067 34.8339C30.0856 34.8339 30.6334 34.6121 31.0429 34.2025L46.7725 18.473C47.1863 18.0592 47.4038 17.5268 47.4038 16.9421V7.32432C47.4038 6.08132 46.3954 5.07267 45.1521 5.07267H42.0474L42.0962 4.94983C42.3852 4.22362 42.8109 3.55908 43.3642 3.0058C44.4264 1.94354 45.834 1.35803 47.3363 1.35803C48.8386 1.35803 50.2465 1.94354 51.3085 3.0058C52.3705 4.06806 52.9562 5.47568 52.9562 6.97795C52.9562 8.47971 52.374 9.89086 51.3085 10.9504C51.0416 11.2157 51.0386 11.6464 51.308 11.9109C51.4368 12.0375 51.6105 12.1125 51.7918 12.1125C51.97 12.1125 52.1444 12.0413 52.2693 11.9119C53.5921 10.5944 54.3145 8.84345 54.3145 6.97795C54.3145 5.11723 53.5878 3.36097 52.2728 2.04448C50.9543 0.724452 49.2053 0 47.3393 0C45.4786 0 43.7221 0.72848 42.4059 2.04473C40.8074 3.64315 40.0913 5.92576 40.4628 8.14895L40.4719 8.20358L40.4271 8.2363C40.3171 8.31685 40.2144 8.40697 40.118 8.50338C39.6012 9.02016 39.3188 9.70408 39.3188 10.4348C39.3188 11.1613 39.604 11.8523 40.118 12.3663C40.6348 12.8831 41.3187 13.1655 42.0494 13.1655C42.7842 13.1655 43.4694 12.8858 43.9889 12.3663C45.0542 11.301 45.0613 9.55859 43.9892 8.49557C43.4666 7.97753 42.7857 7.69611 42.0494 7.69611C41.989 7.69611 41.9261 7.6956 41.8662 7.70341L41.7756 7.71524L41.766 7.62437ZM41.5397 10.8723C41.7521 11.1902 42.1801 11.2605 42.4957 11.0528C42.8104 10.8456 42.8871 10.422 42.679 10.1111C42.4879 9.82592 42.323 9.5241 42.1866 9.20895L42.1194 9.05364L42.2858 9.0851C42.567 9.13847 42.8227 9.26634 43.0256 9.46998C43.5577 10.0041 43.5628 10.8816 43.0251 11.4135C42.7618 11.674 42.4172 11.813 42.0472 11.813C41.6822 11.813 41.3355 11.6718 41.077 11.4133C40.8173 11.1535 40.6773 10.8104 40.6773 10.4431C40.6773 10.2357 40.7264 10.0364 40.8092 9.84706L40.891 9.66003L40.9736 9.84656C41.1314 10.2035 41.323 10.5479 41.5397 10.8723ZM30.4403 27.686C30.501 27.6913 30.5632 27.6991 30.6241 27.6991C31.0082 27.6991 31.3518 27.5151 31.5675 27.1972L33.3492 24.5712L36.5254 24.6701C36.971 24.69 37.3805 24.4471 37.5789 24.0479C37.7858 23.6494 37.7377 23.1812 37.4636 22.828L35.5195 20.3232L36.5974 17.3398C36.7482 16.9227 36.6483 16.4593 36.3341 16.1451C36.0164 15.8274 35.5626 15.721 35.1394 15.8738L32.1558 16.9516L29.6509 15.002C29.2975 14.7269 28.8301 14.6829 28.4313 14.8868C28.0339 15.0899 27.7942 15.4944 27.8088 15.941L27.9133 19.1167L25.2876 20.8986C24.9143 21.1521 24.7268 21.58 24.7794 22.0253C24.8443 22.4696 25.1597 22.8162 25.5897 22.9418L28.636 23.8299L29.5241 26.8762C29.6497 27.3077 29.9965 27.6148 30.4403 27.686ZM26.4365 21.7638L28.9834 20.0355C29.1686 19.902 29.2955 19.681 29.2834 19.4469L29.1795 16.3641L31.6186 18.255C31.8004 18.4033 32.0476 18.439 32.2658 18.36L35.1689 17.3096L34.1182 20.2127C34.0389 20.4319 34.0787 20.6771 34.2237 20.8603L36.1139 23.2985L33.0325 23.2034C32.8005 23.1961 32.5807 23.3071 32.4523 23.5019L30.7233 26.0508L29.8661 23.0878C29.7972 22.8613 29.6285 22.6871 29.3995 22.6209L26.4365 21.7638ZM15.2608 49.1769C17.598 48.2058 20.2466 48.2513 22.7286 48.4016C23.4407 48.4446 24.1521 48.5053 24.8632 48.5614C26.6557 48.7032 28.4605 48.8507 30.2598 48.8101C33.872 48.7288 36.1151 47.7386 39.2284 46.0895C40.1749 45.5881 41.1105 45.0595 42.0368 44.5216C43.1442 43.8787 44.2422 43.2169 45.3241 42.532C46.3201 41.9014 47.3157 41.2474 48.2642 40.5469C48.8119 40.1421 49.6109 39.5451 50.0237 39.0034C50.7617 38.0345 51.0089 36.716 50.1521 35.7418C49.7616 35.298 49.2056 35.035 48.6241 34.9592C47.8425 34.8573 47.0677 35.0889 46.3936 35.4765C45.7296 35.8584 45.0454 36.2156 44.3635 36.5642C43.4515 37.0304 42.531 37.4807 41.6056 37.9194C39.607 38.8667 37.5607 39.7819 35.4939 40.5691L35.3426 40.6267L35.3738 40.4679C35.5112 39.7706 35.3766 39.0615 35.0113 38.4523C34.4621 37.5358 33.5002 37.0002 32.4292 37.0341C30.3817 37.0341 28.3921 36.7912 26.4166 36.2571C24.8655 35.8377 23.4163 35.2567 21.9364 34.6428C19.6297 33.6855 17.4405 32.7443 14.9029 33.3585C13.4474 33.7109 12.1178 34.5197 10.9466 35.4312C9.2316 36.7663 7.67043 38.4461 6.2608 40.0941L6.21599 40.1464L6.15381 40.1167C5.8452 39.969 5.50362 39.8899 5.16128 39.8899C4.53651 39.8899 3.94195 40.1364 3.50043 40.5781L0.195587 43.883C0.0682163 44.0103 0 44.187 0 44.3663C0 44.5498 0.0654474 44.7197 0.195587 44.8496L10.4081 55.0563C10.5353 55.1812 10.7069 55.2577 10.8864 55.2577C11.0626 55.2577 11.2378 55.1892 11.3654 55.0694L14.6695 51.7653C15.112 51.3228 15.3577 50.7305 15.3577 50.1045C15.3577 49.8261 15.3109 49.5522 15.212 49.2917L15.181 49.2104L15.2608 49.1769ZM14.0042 50.0964C14.0042 50.3645 13.896 50.6097 13.7069 50.7987L10.8852 53.6205L1.63895 44.366L4.46074 41.5442C4.65054 41.3544 4.89521 41.2553 5.16304 41.2553C5.42131 41.2553 5.67454 41.3617 5.85729 41.5442L13.7163 49.3949C13.8993 49.5867 14.0045 49.8309 14.0042 50.0964ZM49.1273 36.6397C49.5504 37.0998 49.2542 37.7568 48.9295 38.1787C48.604 38.6016 47.9248 39.0995 47.4944 39.4172C46.6599 40.0329 45.788 40.6114 44.9153 41.1712C42.8663 42.4859 40.7337 43.7453 38.5815 44.8836C35.6862 46.4148 33.5732 47.3711 30.2175 47.4438C28.4681 47.4818 26.7053 47.3343 24.9624 47.1943C24.2425 47.1367 23.5223 47.0778 22.8014 47.0348C19.9544 46.8646 17.0327 46.8588 14.3823 48.0663L14.3257 48.092L7.25811 41.0244L7.31198 40.9612C8.64434 39.4021 10.1287 37.7865 11.7486 36.5204C12.767 35.7239 13.9257 35.007 15.1954 34.7025C17.3984 34.1741 19.4069 35.0755 21.4061 35.9047C22.9411 36.5413 24.4413 37.1358 26.0501 37.5701C28.1451 38.1354 30.2619 38.3992 32.4317 38.3992H32.4647C33.0308 38.3703 33.5488 38.664 33.8406 39.1491C34.1376 39.6427 34.1434 40.2285 33.8489 40.7246C33.1033 41.9812 30.0882 41.9991 28.8467 41.946C27.6873 41.8964 26.5079 41.7456 25.3727 41.505C24.6351 41.3486 23.6632 41.111 22.9944 40.7581C22.6611 40.5821 22.2534 40.7173 22.0756 41.0461C21.8977 41.3756 22.0331 41.7912 22.3629 41.9633C23.1716 42.3852 24.2508 42.6599 25.1406 42.8459C26.3265 43.0938 27.5644 43.2517 28.7754 43.3038C29.0556 43.3158 29.3358 43.3254 29.6162 43.3254C30.8451 43.3254 32.2472 43.2005 33.3847 42.7235L33.3897 42.7213L33.395 42.7198C34.5373 42.3986 35.6774 41.9709 36.7794 41.5326C38.0946 41.0096 39.3955 40.4442 40.6833 39.8569C41.92 39.2931 43.1482 38.7071 44.3625 38.0969C45.2735 37.6393 46.1912 37.1673 47.0738 36.6571C47.4453 36.4424 47.8813 36.2855 48.3158 36.3024C48.612 36.314 48.9257 36.4121 49.1263 36.6392L49.1273 36.6397ZM10.3117 19.6327H16.9164C17.2889 19.6327 17.5953 19.3266 17.5953 18.9538C17.5953 18.581 17.2889 18.2749 16.9164 18.2749L10.3117 18.2747C9.93869 18.2747 9.6341 18.5815 9.63284 18.9538C9.63159 19.3279 9.93818 19.6327 10.3117 19.6327ZM12.5966 26.8256C12.2251 26.8256 11.9094 27.131 11.9094 27.5045C11.9094 27.8781 12.2251 28.1834 12.5966 28.1834L16.9194 28.1837C17.2922 28.1837 17.5983 27.8773 17.5983 27.5048C17.5983 27.1322 17.2919 26.8259 16.9194 26.8259L12.5966 26.8256ZM3.17923 19.6327H6.08887C6.46167 19.6327 6.76776 19.3266 6.76776 18.9538C6.76776 18.581 6.46142 18.2749 6.08887 18.2749L3.17923 18.2747C2.80668 18.2747 2.50034 18.581 2.50034 18.9536C2.50034 19.3261 2.80668 19.6327 3.17923 19.6327ZM7.6075 23.9099L14.7727 23.9097C15.1485 23.9097 15.4597 23.6084 15.4597 23.2308C15.4597 22.8532 15.1483 22.5519 14.7725 22.5519L7.60725 22.5494C7.2347 22.5494 6.92836 22.8557 6.92836 23.2283C6.92836 23.6021 7.23319 23.9099 7.6075 23.9099Z" fill="#5D3A99"/>
<path fill-rule="evenodd" clip-rule="evenodd" d="M30.4403 27.686C30.501 27.6912 30.5632 27.699 30.6241 27.699C31.0082 27.699 31.3518 27.515 31.5676 27.1971L33.3492 24.5712L36.5254 24.6701C36.971 24.69 37.3805 24.4471 37.5789 24.0478C37.7858 23.6494 37.7377 23.1812 37.4636 22.828L35.5196 20.3231L36.5974 17.3397C36.7482 16.9226 36.6483 16.4592 36.3341 16.1451C36.0165 15.8274 35.5626 15.7209 35.1395 15.8737L32.1558 16.9516L29.6509 15.002C29.2975 14.7269 28.8301 14.6828 28.4314 14.8867C28.0339 15.0899 27.7943 15.4944 27.8089 15.9409L27.9133 19.1166L25.2876 20.8986C24.9143 21.152 24.7268 21.58 24.7794 22.0253C24.8443 22.4695 25.1598 22.8162 25.5897 22.9418L28.636 23.8298L29.5241 26.8762C29.6497 27.3076 29.9966 27.6147 30.4403 27.686ZM26.4365 21.7637L28.9834 20.0354C29.1687 19.902 29.2955 19.681 29.2834 19.4469L29.1795 16.3641L31.6187 18.255C31.8004 18.4033 32.0476 18.439 32.2658 18.36L35.1689 17.3095L34.1182 20.2126C34.0389 20.4319 34.0787 20.677 34.2237 20.8603L36.1139 23.2985L33.0326 23.2033C32.8005 23.196 32.5807 23.307 32.4523 23.5019L30.7233 26.0508L29.8662 23.0878C29.7972 22.8612 29.6285 22.687 29.3995 22.6208L26.4365 21.7637ZM10.3118 19.6327H16.9164C17.289 19.6327 17.5953 19.3266 17.5953 18.9538C17.5953 18.581 17.289 18.2749 16.9164 18.2749L10.3118 18.2746C9.93871 18.2746 9.63413 18.5815 9.63287 18.9538C9.63161 19.3278 9.93821 19.6327 10.3118 19.6327ZM12.5966 26.8256C12.2251 26.8256 11.9094 27.1309 11.9094 27.5045C11.9094 27.878 12.2251 28.1834 12.5966 28.1834L16.9194 28.1836C17.2922 28.1836 17.5983 27.8773 17.5983 27.5047C17.5983 27.1322 17.292 26.8258 16.9194 26.8258L12.5966 26.8256ZM3.17926 19.6327H6.0889C6.46169 19.6327 6.76779 19.3266 6.76779 18.9538C6.76779 18.581 6.46144 18.2749 6.0889 18.2749L3.17926 18.2746C2.80671 18.2746 2.50037 18.581 2.50037 18.9535C2.50037 19.3261 2.80671 19.6327 3.17926 19.6327ZM7.60753 23.9099L14.7728 23.9096C15.1486 23.9096 15.4597 23.6083 15.4597 23.2308C15.4597 22.8532 15.1483 22.5519 14.7725 22.5519L7.60727 22.5493C7.23473 22.5493 6.92838 22.8557 6.92838 23.2282C6.92838 23.602 7.23322 23.9099 7.60753 23.9099Z" fill="#13E7CF"/>
</svg>
