<svg width="50" height="50" viewBox="0 0 50 50" fill="none" xmlns="http://www.w3.org/2000/svg">
<path d="M49.4113 50H0.588651C0.264893 50 0 49.7351 0 49.4114V0.588651C0 0.264893 0.264893 0 0.588651 0C0.912409 0 1.1773 0.264893 1.1773 0.588651V48.8227H49.4113C49.7351 48.8227 50 49.0876 50 49.4114C50 49.7351 49.7351 50 49.4113 50Z" fill="#5D3A99"/>
<path d="M49.4113 50H40.0224C39.6986 50 39.4337 49.7351 39.4337 49.4114V6.22205C39.4337 5.89829 39.6986 5.63339 40.0224 5.63339H49.4113C49.7351 5.63339 50 5.89829 50 6.22205V49.4114C50 49.7351 49.7351 50 49.4113 50ZM40.611 48.8286H48.8286V6.81657H40.611V48.8286Z" fill="#5D3A99"/>
<path d="M16.5529 50H7.16389C6.84013 50 6.57524 49.7351 6.57524 49.4114V32.5112C6.57524 32.1874 6.84013 31.9226 7.16389 31.9226H16.5529C16.8766 31.9226 17.1415 32.1874 17.1415 32.5112V49.4114C17.1415 49.7351 16.8766 50 16.5529 50ZM7.74665 48.8286H15.9642V33.0999H7.74665V48.8286Z" fill="#5D3A99"/>
<path d="M32.5112 50H23.1222C22.7985 50 22.5336 49.7351 22.5336 49.4114V15.611C22.5336 15.2873 22.7985 15.0224 23.1222 15.0224H32.5112C32.8349 15.0224 33.0998 15.2873 33.0998 15.611V49.4114C33.0998 49.7351 32.8349 50 32.5112 50ZM23.7109 48.8286H31.9284V16.1997H23.7109V48.8286Z" fill="#5D3A99"/>
<path d="M13.7332 40.611H7.16389C6.84013 40.611 6.57524 40.3461 6.57524 40.0224C6.57524 39.6986 6.84013 39.4337 7.16389 39.4337H13.7332C14.057 39.4337 14.3219 39.6986 14.3219 40.0224C14.3219 40.3461 14.057 40.611 13.7332 40.611Z" fill="#13E7CF"/>
<path d="M29.6974 25.5887H23.1281C22.8043 25.5887 22.5394 25.3238 22.5394 25C22.5394 24.6763 22.8043 24.4114 23.1281 24.4114H29.6974C30.0212 24.4114 30.2861 24.6763 30.2861 25C30.2861 25.3238 30.0212 25.5887 29.6974 25.5887Z" fill="#13E7CF"/>
<path d="M46.5976 20.8912H40.0283C39.7045 20.8912 39.4396 20.6263 39.4396 20.3026C39.4396 19.9788 39.7045 19.7139 40.0283 19.7139H46.5976C46.9213 19.7139 47.1862 19.9788 47.1862 20.3026C47.1862 20.6263 46.9213 20.8912 46.5976 20.8912Z" fill="#13E7CF"/>
</svg>
