<svg width="44" height="63" viewBox="0 0 44 63" fill="none" xmlns="http://www.w3.org/2000/svg">
<path fill-rule="evenodd" clip-rule="evenodd" d="M27.7356 29.2849H28.8865H30.3065H31.7014H33.1167H34.5121H35.9283H43.0533L43.0854 29.3911C43.4659 30.6539 43.6944 31.9597 43.7657 33.2767C43.9318 36.3419 43.245 39.391 41.7801 42.0889C41.774 42.1007 41.7674 42.112 41.7603 42.1233C40.8388 43.5957 40.1392 45.2003 39.6898 46.878C39.2498 48.5208 39.0511 50.2245 39.1011 51.924C39.2026 55.3838 40.3247 58.7308 42.3296 61.5523C42.4089 61.6642 42.4514 61.7983 42.4514 61.9352C42.4514 62.3006 42.1549 62.5975 41.7896 62.597L21.6369 62.5772C21.3428 62.5767 21.0846 62.3832 21.0019 62.1009C20.3661 59.9232 19.2515 57.9297 17.8405 56.1608L17.8183 56.133L13.2893 58.1213C13.2624 58.1327 13.2359 58.1426 13.2085 58.1506C12.1171 58.4692 10.8123 58.5811 9.9064 57.7541C8.64031 56.5984 8.87634 54.2173 9.13787 52.6906L9.14306 52.6609L7.29113 51.4486C7.24959 51.4217 7.21135 51.3901 7.17736 51.3542C6.92386 51.0913 6.93141 50.6716 7.19436 50.4181L7.74951 49.8828L6.46407 48.9726C6.17185 48.7658 6.09727 48.3627 6.29601 48.0648L7.25856 46.6212L4.4842 44.2977C4.22976 44.0843 4.17264 43.7161 4.35013 43.4357L8.88484 36.2871L7.14054 33.6166C7.06076 33.4944 7.023 33.3485 7.0348 33.2026C7.13393 31.9488 7.36478 30.7073 7.73393 29.5044V29.2835H13.8472H15.2677H19.0995H22.5711H26.4105H27.7356V29.2849ZM1.86515 13.496L0.681674 13.5395C0.319596 13.5527 0.014639 13.2704 0.000476839 12.9083C-0.0132132 12.5462 0.269557 12.2403 0.632107 12.2271L1.86515 12.1827V13.4965V13.496ZM42.0539 30.6223H8.79184C8.58933 31.4262 8.45101 32.2448 8.37501 33.0704L8.37359 33.0865L10.2265 35.9232C10.3686 36.1403 10.3704 36.4203 10.2312 36.6398L5.77909 43.6576L8.56336 45.9901C8.82253 46.2072 8.87682 46.5835 8.68941 46.8648L7.75518 48.2664L9.16761 49.2672C9.20113 49.2908 9.23276 49.3177 9.26108 49.3474C9.51458 49.6104 9.50703 50.0305 9.24409 50.284L8.71159 50.7976L10.2378 51.7961C10.4616 51.9424 10.5763 52.2153 10.5248 52.4773C10.3214 53.5153 9.92765 55.9824 10.8 56.7778C11.3014 57.2348 12.2077 57.0596 12.7945 56.8935L12.7974 56.8925L17.7324 54.7262C17.7409 54.722 17.7513 54.7172 17.7602 54.7135L25.9965 51.0974C26.3288 50.9515 26.7225 51.1054 26.8688 51.4373C27.0147 51.7696 26.8608 52.1638 26.5289 52.3097L19.0707 55.584L19.1066 55.6307C20.4067 57.3188 21.4518 59.1944 22.116 61.2228L22.1264 61.2545L40.5579 61.2729L40.5154 61.2025C38.8202 58.4164 37.8841 55.2323 37.7883 51.9731C37.734 50.1282 37.9502 48.2796 38.4298 46.4975C38.9095 44.716 39.6379 43.0019 40.6254 41.4417L40.6259 41.4407C41.9713 38.959 42.6091 36.1606 42.4533 33.3409C42.4028 32.4251 42.2692 31.514 42.0549 30.6223H42.0539Z" fill="#5D3A99"/>
<path fill-rule="evenodd" clip-rule="evenodd" d="M10.438 23.9958C9.29131 23.4515 8.25181 22.7009 7.37754 21.7809C6.49382 20.8514 5.79374 19.7684 5.30751 18.5812C4.26612 16.0391 4.27745 13.2123 5.33725 10.6782C6.39752 8.14416 8.40335 6.15297 10.9459 5.11158C13.489 4.06972 16.3143 4.08058 18.8489 5.1418C21.3834 6.20254 23.3732 8.21025 24.4146 10.7528C24.9008 11.9396 25.1623 13.2029 25.1845 14.4855C25.2062 15.7497 24.9924 17.0163 24.559 18.204L24.5571 18.2115C24.3277 19.1377 24.2328 20.089 24.2668 21.0435C24.2947 21.8262 24.4065 22.6027 24.5883 23.3637L24.6969 23.3193C25.0311 23.182 25.4172 23.3439 25.5541 23.6786L27.584 28.6344C27.6695 28.8426 27.7205 29.0621 27.7356 29.2858H26.4105C26.401 29.2334 26.3859 29.182 26.3656 29.1324L25.8742 27.9329L22.5711 29.2858H19.0995L25.3771 26.7145L24.5869 24.7856L15.0279 28.7009L15.2677 29.2858H13.8473L13.5626 28.591C13.4252 28.2563 13.5872 27.8706 13.9219 27.7337L14.03 27.6893C13.6259 27.0194 13.1609 26.3887 12.6317 25.8119C11.9854 25.1075 11.2518 24.4976 10.4375 23.9972L10.438 23.9958ZM28.887 29.2844L32.4039 20.4652C32.444 20.3703 32.5016 20.2872 32.5781 20.2197L37.1808 15.6916C37.4385 15.4381 37.8558 15.441 38.1093 15.6992C38.225 15.8167 38.292 15.972 38.2977 16.1368L38.5233 22.5895C38.5323 22.6915 38.5162 22.7925 38.4785 22.8879L35.9288 29.2844H34.5126L36.9018 23.2934L35.8509 22.4252L33.1172 29.2844H31.7019L34.6302 21.9381L33.2725 21.8451L30.3074 29.2844H28.8874H28.887ZM22.3129 5.62047C22.0457 5.86501 21.6303 5.8466 21.3858 5.57988C21.1408 5.31268 21.1611 4.89679 21.4278 4.65226L23.2896 2.94714C23.5568 2.70213 23.9732 2.72196 24.2177 2.98915C24.4618 3.25635 24.4424 3.67271 24.1752 3.91677L22.3129 5.62047ZM17.3864 3.10103C17.3217 3.4565 16.9799 3.69443 16.624 3.62881C16.2685 3.56319 16.0315 3.22236 16.0962 2.86642L16.5206 0.538164C16.5853 0.182695 16.9266 -0.0533402 17.282 0.0103893C17.638 0.0741188 17.8754 0.417314 17.8103 0.772783L17.3859 3.10103H17.3864ZM3.15581 12.1355C3.51647 12.1223 3.8219 12.4046 3.83607 12.7648C3.8507 13.1273 3.56699 13.4332 3.20444 13.4465L0.682163 13.539C0.320085 13.5522 0.0151272 13.2699 0.00096512 12.9078C-0.0127249 12.5457 0.270045 12.2398 0.632595 12.2266L3.15534 12.136L3.15581 12.1355ZM5.70216 7.12496C5.99815 7.33315 6.06896 7.7429 5.86078 8.03842C5.65212 8.33488 5.24378 8.40522 4.94732 8.19703L3.01183 6.83606C2.7149 6.6274 2.64456 6.21953 2.85321 5.9226C3.06187 5.62567 3.47021 5.55533 3.76667 5.76398L5.70263 7.12496H5.70216ZM11.071 3.68121C11.2084 4.01591 11.0469 4.40159 10.7122 4.53849C10.3775 4.67586 9.99186 4.51394 9.85496 4.17972L8.97974 2.0436C8.84237 1.7089 9.00429 1.32322 9.33899 1.18632C9.67369 1.04894 10.0589 1.21086 10.1963 1.54556L11.0715 3.68168L11.071 3.68121ZM36.3527 18.3494C36.4576 18.4259 36.5713 18.4891 36.6926 18.5377C36.814 18.5859 36.9409 18.6189 37.0703 18.6355L37.0373 17.6767L36.3527 18.3494ZM37.117 19.9587C36.805 19.9431 36.4977 19.877 36.2069 19.7609C35.9156 19.6447 35.6475 19.4819 35.41 19.2784L34.0802 20.587L35.5729 20.6885C35.6569 20.6885 35.74 20.7041 35.8184 20.7352C35.8967 20.7664 35.9666 20.8122 36.028 20.8698L37.1817 21.8233L37.1166 19.9591L37.117 19.9587ZM23.2835 17.8971C23.2906 17.8627 23.3005 17.8287 23.3127 17.7956C23.7003 16.7476 23.8934 15.6293 23.875 14.5119C23.857 13.3917 23.6234 12.2889 23.199 11.2527C22.2902 9.03402 20.554 7.28311 18.3423 6.35785C16.1302 5.43212 13.6646 5.42268 11.4454 6.33141C9.22664 7.24015 7.47573 8.97642 6.55 11.1881C5.62474 13.3993 5.61435 15.8653 6.52309 18.0836C6.94748 19.1193 7.55504 20.0677 8.32734 20.8792C9.09729 21.6883 10.0145 22.3473 11.0252 22.8218C11.0592 22.8378 11.0923 22.8562 11.1234 22.878C12.0421 23.4425 12.8701 24.1299 13.5994 24.9244C14.2329 25.615 14.7824 26.3784 15.255 27.187L23.3609 23.8665C23.1301 22.9582 22.9875 22.0296 22.9535 21.0926C22.9143 20.0153 23.0234 18.9428 23.2835 17.8967V17.8971Z" fill="#13E7CF"/>
</svg>
