<svg width="61" height="56" viewBox="0 0 61 56" fill="none" xmlns="http://www.w3.org/2000/svg">
<path fill-rule="evenodd" clip-rule="evenodd" d="M43.2346 10.9738L51.7764 0.759413C52.1775 0.279903 52.7692 0 53.3949 0C53.8914 0 54.3702 0.178017 54.7512 0.495417L57.2188 2.55284C57.6498 2.91228 57.9146 3.4327 57.9646 3.99061C57.9703 4.05614 57.9737 4.12204 57.9737 4.18794C57.9737 4.68033 57.7983 5.15643 57.4828 5.53406L52.9366 10.9738H57.3415C59.0115 10.9738 60.369 12.3309 60.369 14.0012V52.3495C60.369 54.0194 59.0115 55.3769 57.3415 55.3769H3.02742C1.3571 55.3769 0 54.0194 0 52.3491V14.0012C0 12.3309 1.35747 10.9738 3.02742 10.9738H43.2346ZM37.6934 44.9997H21.5313C21.1446 44.9997 20.8306 44.6853 20.8306 44.2986C20.8306 43.9115 21.1442 43.5979 21.5313 43.5979L37.7547 43.5982C37.7987 43.6001 37.8411 43.6013 37.8839 43.6013C39.3194 43.6013 40.4841 42.437 40.4841 41.0011C40.4841 39.5652 39.3198 38.4009 37.8839 38.4009C37.8415 38.4009 37.7987 38.4021 37.7547 38.4039H27.9434C27.8282 38.4145 27.71 38.4198 27.5915 38.4198C25.4526 38.4198 23.7179 36.6851 23.7179 34.5463C23.7179 32.4074 25.4526 30.6731 27.5915 30.6731C27.7097 30.6731 27.8282 30.6788 27.9434 30.689H30.4409L31.7275 24.8137C31.7662 24.6375 31.8711 24.4845 32.0196 24.3838L38.8781 16.1821H11.4317V50.1735H55.1591V16.1821H48.582L37.6127 29.3065C37.5021 29.4387 37.3457 29.5239 37.1752 29.5478L31.4632 31.9184C31.3355 32.0294 31.173 32.09 31.0037 32.09H27.9384C27.8956 32.0877 27.8544 32.0866 27.8131 32.0866C26.448 32.0866 25.3413 33.1933 25.3413 34.5584C25.3413 35.9234 26.448 37.0302 27.8131 37.0302C27.8547 37.0302 27.896 37.029 27.9392 37.0272H37.7521C37.8047 37.0253 37.8582 37.0237 37.9119 37.0237C40.1216 37.0237 41.9135 38.8157 41.9135 41.0253C41.9135 43.235 40.1216 45.0269 37.9119 45.0269C37.8582 45.0269 37.8044 45.0254 37.751 45.0235L37.693 45.0212V44.9981L37.6934 44.9997ZM33.4073 24.8845L36.9635 27.8642L50.867 11.2594C50.8837 11.2363 50.9034 11.2128 50.9231 11.1923L54.0444 7.46421L50.4799 4.4936L44.1073 12.1052C44.0975 12.118 44.0865 12.1313 44.0755 12.143L40.9386 15.8893C40.9185 15.9177 40.8947 15.9462 40.8704 15.9708L33.4073 24.8845ZM32.8494 26.2814L31.979 30.2011L35.7087 28.6558L34.1342 27.3476L32.8494 26.2814ZM51.3806 3.41793L54.9455 6.38854L56.4177 4.63033C56.5249 4.50231 56.5855 4.34172 56.5855 4.17469C56.5855 3.9641 56.4901 3.76638 56.3287 3.63155L53.8615 1.56769C53.7327 1.45974 53.5706 1.39914 53.4024 1.39914C53.1911 1.39914 52.9915 1.49459 52.8559 1.65632L51.3806 3.41793ZM42.0628 12.3752H3.02742C2.12976 12.3752 1.40179 13.1032 1.40179 14.0008V52.3491C1.40179 53.2468 2.12976 53.9747 3.0278 53.9747H57.3415C58.2392 53.9747 58.9672 53.2468 58.9672 52.3487L58.9676 14.0008C58.9676 13.1028 58.2392 12.3748 57.3412 12.3748L51.7651 12.3752L49.7546 14.7807H55.861C56.2477 14.7807 56.5617 15.0947 56.5617 15.4814L56.562 50.8746C56.562 51.2613 56.2477 51.5753 55.861 51.5753L10.7322 51.5757C10.3454 51.5757 10.0314 51.2613 10.0314 50.8746L10.0311 15.4818C10.0311 15.0947 10.3451 14.7811 10.7322 14.7811H40.0515L42.0628 12.3752Z" fill="#5D3A99"/>
<path d="M2.7561 33.1713C2.7561 34.7864 4.06585 36.0965 5.68164 36.0965C7.29895 36.0965 8.60529 34.7894 8.60567 33.1778V33.1713C8.60567 31.5559 7.29592 30.2466 5.68088 30.2466C4.06585 30.2466 2.7561 31.5563 2.7561 33.1713Z" fill="#13E7CF"/>
<path d="M4.98018 46.3556C4.98018 46.7427 5.29417 47.0567 5.68088 47.0567C6.06798 47.0567 6.38159 46.7423 6.38159 46.3552V42.2339C6.38159 41.8472 6.06798 41.5332 5.68088 41.5332C5.29379 41.5332 4.9798 41.8472 4.9798 42.2343L4.98018 46.3556Z" fill="#13E7CF"/>
<path d="M4.98018 24.1152C4.98018 24.5023 5.29417 24.8159 5.68088 24.8159C6.06798 24.8159 6.38159 24.5023 6.38159 24.1152V19.9939C6.38159 19.6072 6.06798 19.2932 5.68088 19.2932C5.29379 19.2932 4.9798 19.6068 4.9798 19.9939L4.98018 24.1152Z" fill="#13E7CF"/>
</svg>
