<svg width="55" height="55" viewBox="0 0 55 55" fill="none" xmlns="http://www.w3.org/2000/svg">
<path fill-rule="evenodd" clip-rule="evenodd" d="M53.3576 8.0104H32.06C31.3047 8.0104 30.7063 8.60598 30.7063 9.36409V15.5944C30.7063 16.3614 31.4285 16.9368 32.1663 16.8853C33.7885 16.7723 35.3817 17.3422 35.9041 18.9965C36.3123 20.1579 36.0663 21.3796 35.2097 22.2744C34.4549 23.0628 33.3126 23.4753 32.239 23.1952C31.4425 22.9874 30.6429 23.5212 30.6429 24.3678V30.7062H24.3042C23.4687 30.7062 22.8767 31.4855 23.1276 32.2886L23.1296 32.2946L23.1312 32.3008C23.417 33.3724 23.0057 34.5007 22.2133 35.2495C21.3207 36.0931 20.0997 36.3458 18.9354 35.9683L18.928 35.9658C17.6049 35.4987 16.8211 34.2778 16.8211 32.8863C16.8211 32.3942 16.9443 31.9001 16.6266 31.4762L16.619 31.4661L16.6123 31.4554C16.364 31.058 16.0168 30.7693 15.531 30.7694L9.30049 30.7699C8.54512 30.7699 7.94679 31.3654 7.94679 32.1235V53.4846C7.94679 54.24 8.54238 54.8383 9.30049 54.8383H53.3574C54.1127 54.8383 54.7111 54.2427 54.7111 53.4846L54.7113 9.4277C54.7113 8.61706 54.1847 8.0103 53.3576 8.0103V8.0104ZM37.419 20.0446C37.419 18.8629 36.9589 17.7224 36.1168 16.8877C35.1033 15.883 33.7217 15.4867 32.3197 15.5122L32.0151 15.5178V9.25573H53.4024V30.6428L47.4529 30.6426L47.4058 30.4004C46.973 28.1744 44.994 26.6375 42.7406 26.6375C40.4871 26.6375 38.5084 28.1745 38.0754 30.4005L38.0283 30.6425H32.0153V24.4566L32.3661 24.518C33.5821 24.7308 34.845 24.2927 35.7778 23.5106C36.8112 22.6441 37.4191 21.3983 37.4191 20.0446L37.419 20.0446ZM30.8024 46.1508C29.1376 45.8614 28.01 44.4138 28.01 42.7405C28.01 41.0672 29.1376 39.6199 30.8037 39.33C31.4841 39.2254 32.015 38.5909 32.015 37.9087V32.015L37.909 32.0152C38.6239 32.0153 39.221 31.514 39.3303 30.804C39.6199 29.1377 41.0675 28.0104 42.7407 28.0104C44.414 28.0104 45.8613 29.1378 46.1512 30.8039C46.2605 31.5141 46.8575 32.0152 47.5725 32.0152H53.4023V53.4025L32.015 53.4023V47.572C32.015 46.89 31.4839 46.2555 30.8023 46.1507L30.8024 46.1508ZM20.0447 37.4189C21.3984 37.4189 22.6442 36.8111 23.5107 35.7776C24.2928 34.8447 24.7308 33.5818 24.5181 32.3657L24.4568 32.015L30.7063 32.0152V38.0284L30.4642 38.0755C28.238 38.5083 26.701 40.4872 26.701 42.7407C26.701 44.9944 28.2381 46.9729 30.4643 47.4059L30.7063 47.453V53.4028L9.31918 53.4023V32.0152H15.5871L15.5756 32.3255C15.5246 33.7012 15.9014 35.0878 16.8747 36.0958C17.7062 36.9571 18.8515 37.4189 20.0447 37.4189H20.0447ZM7.30553 24.2471C7.73834 26.4732 9.71724 28.0102 11.9707 28.0102C14.2244 28.0102 16.2029 26.4731 16.6359 24.247L16.683 24.0049H22.7147C23.4701 24.0049 24.0684 23.4093 24.0684 22.6512V16.6194L24.3105 16.5723C26.5365 16.1395 28.0734 14.1605 28.0734 11.9071C28.0734 9.65353 26.5365 7.67493 24.3105 7.24187L24.0684 7.19478L24.0687 1.3537C24.0687 0.598329 23.4731 0 22.715 0H1.35369C0.598329 0 0 0.595585 0 1.3537V22.7147C0 23.4701 0.595585 24.0684 1.35202 24.0684L7.25793 24.0022L7.30558 24.2471L7.30553 24.2471ZM26.701 11.9707C26.701 13.6439 25.5736 15.0913 23.9076 15.3812C23.2273 15.4859 22.6963 16.1204 22.6963 16.8025V22.6963H16.8024C16.0875 22.6963 15.4903 23.1973 15.3811 23.9075C15.0914 25.5737 13.6438 26.7012 11.9706 26.7012C10.2973 26.7012 8.85 25.5736 8.56011 23.9075C8.45083 23.1972 7.85382 22.6963 7.13879 22.6963H1.30899V1.30889H22.6961V7.13915C22.6961 7.85412 23.1973 8.45113 23.901 8.5595C25.5845 8.77882 26.7011 10.3159 26.7011 11.9707L26.701 11.9707Z" fill="#5D3A99"/>
<path fill-rule="evenodd" clip-rule="evenodd" d="M7.30553 24.2471C7.73834 26.4732 9.71724 28.0102 11.9707 28.0102C14.2244 28.0102 16.2029 26.4731 16.6359 24.247L16.683 24.0049H22.7147C23.4701 24.0049 24.0684 23.4093 24.0684 22.6512V16.6194L24.3105 16.5723C26.5365 16.1395 28.0734 14.1605 28.0734 11.9071C28.0734 9.65353 26.5365 7.67493 24.3105 7.24187L24.0684 7.19478L24.0687 1.3537C24.0687 0.598329 23.4731 0 22.715 0H1.35369C0.598329 0 0 0.595585 0 1.3537V22.7147C0 23.4701 0.595585 24.0684 1.35202 24.0684L7.25793 24.0022L7.30553 24.2471ZM26.701 11.9707C26.701 13.6439 25.5736 15.0913 23.9076 15.3812C23.2273 15.4859 22.6963 16.1204 22.6963 16.8025V22.6963H16.8024C16.0875 22.6963 15.4903 23.1973 15.3811 23.9075C15.0914 25.5737 13.6438 26.7012 11.9706 26.7012C10.2973 26.7012 8.85 25.5736 8.56011 23.9075C8.45083 23.1972 7.85382 22.6963 7.13879 22.6963H1.30899V1.30889H22.6961V7.13915C22.6961 7.85412 23.1973 8.45113 23.901 8.5595C25.5845 8.77882 26.701 10.316 26.701 11.9707Z" fill="#13E7CF"/>
</svg>
