<svg width="63" height="48" viewBox="0 0 63 48" fill="none" xmlns="http://www.w3.org/2000/svg">
<path fill-rule="evenodd" clip-rule="evenodd" d="M62.1609 31.0685C62.5569 31.0685 62.8777 30.7477 62.8777 30.3517V8.20155C62.8777 3.6793 59.1984 0 54.6762 0H17.201C12.6788 0 8.9995 3.6793 8.9995 8.20155V14.0219H6.78116C3.04221 14.0219 0 17.0641 0 20.8031V43.6118C0 45.0748 0.804802 46.4032 2.10148 47.0804C2.66132 47.3728 3.28228 47.5273 3.91448 47.5268C4.71489 47.5268 5.49231 47.2804 6.14896 46.8227L9.87618 44.2274C11.1161 43.3639 12.5737 42.9068 14.085 42.9068H37.1441C40.883 42.9068 43.9253 39.8646 43.9253 36.1256V35.315H45.662C47.5615 35.315 49.3936 35.8899 50.9524 36.9754L55.5523 40.1785C56.3347 40.7232 57.2607 41.017 58.2141 41.017C58.9671 41.017 59.7069 40.8337 60.3738 40.485C61.9184 39.6783 62.8777 38.0956 62.8777 36.353C62.8777 35.9569 62.5569 35.6362 62.1609 35.6362C61.7649 35.6362 61.4441 35.9569 61.4441 36.353C61.4441 37.5748 60.7933 38.6486 59.7103 39.2138C58.6342 39.7756 57.3678 39.6954 56.3718 39.0016L51.7718 35.7985C49.971 34.5444 47.8564 33.8809 45.662 33.8809H17.201C13.4689 33.8809 10.4336 30.845 10.4336 27.1134V8.20155C10.4336 4.46944 13.4694 1.43407 17.2015 1.43407H54.6766C58.4088 1.43407 61.4441 4.46993 61.4441 8.20155V30.3517C61.4441 30.7477 61.7649 31.0685 62.1609 31.0685ZM17.201 35.3154H42.4912V36.1261C42.4912 39.0749 40.0924 41.4732 37.1441 41.4732H14.0845C12.2784 41.4732 10.5387 42.0193 9.05671 43.0515L5.32949 45.6463C4.56478 46.1788 3.59129 46.2409 2.76547 45.8096C1.93426 45.3755 1.43407 44.5496 1.43407 43.6118V20.8031C1.43407 17.8543 3.83283 15.456 6.78165 15.456H8.99999V27.1139C8.99999 31.6361 12.6788 35.3154 17.201 35.3154ZM24.7846 10.4272L24.7107 10.4282C24.3572 10.4282 24.0697 10.7157 24.0697 11.0692V16.166L22.6019 17.0133C22.2978 17.1888 22.1902 17.5795 22.3667 17.8841L24.0697 20.8324V24.2482C24.0697 24.6017 24.3572 24.8892 24.7107 24.8892H26.4118L28.9562 29.2965C29.1318 29.6007 29.5224 29.7077 29.827 29.5317L37.8682 24.8902H47.164C47.5175 24.8902 47.805 24.6027 47.805 24.2492V19.1549L49.2748 18.3051C49.5804 18.1286 49.6845 17.7374 49.508 17.4318L47.805 14.482V11.0682C47.805 10.7147 47.5175 10.4272 47.164 10.4272H45.463L42.9185 6.01743C42.742 5.71184 42.3509 5.60819 42.0453 5.78421L34.0041 10.4258H24.7841L24.7846 10.4272ZM43.9893 10.4272H36.5593L42.1313 7.20997L43.9893 10.4272ZM47.805 17.0392L48.0813 17.5179L47.805 17.6773V17.0392ZM35.3169 24.8882L29.7425 28.1069L27.8845 24.8882H35.3169ZM24.0688 18.2792L23.7901 17.7976L24.0688 17.6372V18.2792ZM25.3517 11.7092H46.524V23.6062H25.3517V11.7092ZM38.3102 13.8073H38.7415C39.095 13.8073 39.3825 13.5198 39.3825 13.1663C39.3825 12.8128 39.095 12.5253 38.7415 12.5253H38.3102C37.9567 12.5253 37.6692 12.8128 37.6692 13.1663C37.6692 13.5198 37.9567 13.8073 38.3102 13.8073ZM45.065 14.087C44.8205 14.087 44.5873 13.9897 44.4147 13.8166C44.2421 13.6435 44.1443 13.4112 44.1443 13.1668C44.1443 12.8133 43.8568 12.5258 43.5033 12.5258H41.2444C40.8909 12.5258 40.6034 12.8133 40.6034 13.1668C40.6034 13.5203 40.8909 13.8078 41.2444 13.8078H42.9571L42.9708 13.8488C43.0794 14.1779 43.2642 14.4771 43.5092 14.7221C43.7541 14.9671 44.0534 15.1519 44.3824 15.2604L44.4235 15.2741V20.0413L44.3824 20.055C44.0534 20.1636 43.7541 20.3484 43.5092 20.5933C43.2642 20.8383 43.0794 21.1375 42.9708 21.4666L42.9571 21.5077H28.9157L28.902 21.4666C28.7934 21.1375 28.6081 20.8383 28.3636 20.5933C28.1187 20.3484 27.8194 20.1626 27.4894 20.055L27.4483 20.0413V15.2736L27.4894 15.2599C27.819 15.1514 28.1187 14.9666 28.3636 14.7216C28.6086 14.4767 28.7934 14.1774 28.902 13.8484L28.9157 13.8073H35.8044C36.1579 13.8073 36.4454 13.5198 36.4454 13.1663C36.4454 12.8128 36.1579 12.5253 35.8044 12.5253H28.37C28.0165 12.5253 27.729 12.8128 27.729 13.1663C27.729 13.4108 27.6312 13.644 27.4586 13.8161C27.286 13.9887 27.0528 14.0865 26.8088 14.0865C26.4553 14.0865 26.1678 14.374 26.1678 14.7275V20.5865C26.1678 20.94 26.4553 21.2275 26.8088 21.2275C27.0523 21.2275 27.287 21.3253 27.4586 21.4979C27.6312 21.671 27.729 21.9032 27.729 22.1477C27.729 22.5012 28.0165 22.7887 28.37 22.7887H43.5033C43.8568 22.7887 44.1443 22.5012 44.1443 22.1477C44.1443 21.9037 44.2416 21.67 44.4147 21.4979C44.5878 21.3253 44.82 21.2275 45.0645 21.2275C45.418 21.2275 45.7055 20.94 45.7055 20.5865V14.7275C45.7055 14.374 45.4185 14.087 45.065 14.087ZM35.9374 14.8082C35.1785 14.8082 34.4588 15.1074 33.9224 15.6438C33.387 16.1792 33.0883 16.9003 33.0883 17.6577C33.0883 18.4166 33.3861 19.1368 33.9224 19.6727C34.4583 20.2081 35.1795 20.5068 35.9374 20.5068C36.6957 20.5068 37.4155 20.2085 37.9513 19.6727C38.4872 19.1368 38.7869 18.4156 38.7869 17.6577C38.7869 16.8994 38.4872 16.1796 37.9513 15.6438C37.4159 15.1079 36.6948 14.8082 35.9374 14.8082ZM37.0463 16.5488C37.3411 16.8436 37.5049 17.2407 37.5049 17.6577C37.5049 18.0743 37.3411 18.4718 37.0463 18.7666C36.7515 19.0615 36.3544 19.2253 35.9374 19.2253C35.5208 19.2253 35.1233 19.0615 34.8285 18.7666C34.5336 18.4718 34.3698 18.0743 34.3698 17.6577C34.3698 17.2407 34.5336 16.8441 34.8285 16.5488C35.1233 16.254 35.5203 16.0902 35.9374 16.0902C36.3544 16.0902 36.751 16.254 37.0463 16.5488ZM29.8241 18.2987H31.3208C31.6743 18.2987 31.9618 18.0112 31.9618 17.6577C31.9618 17.3042 31.6743 17.0167 31.3208 17.0167H29.8241C29.4706 17.0167 29.1831 17.3042 29.1831 17.6577C29.1831 18.0112 29.4706 18.2987 29.8241 18.2987ZM40.555 18.2987H42.0516C42.4051 18.2987 42.6926 18.0112 42.6926 17.6577C42.6926 17.3042 42.4051 17.0167 42.0516 17.0167H40.555C40.2015 17.0167 39.914 17.3042 39.914 17.6577C39.914 18.0112 40.2015 18.2987 40.555 18.2987Z" fill="#13E7CF"/>
<path fill-rule="evenodd" clip-rule="evenodd" d="M62.1609 31.0685C62.5569 31.0685 62.8777 30.7477 62.8777 30.3517V8.20155C62.8777 3.6793 59.1984 0 54.6762 0H17.201C12.6788 0 8.9995 3.6793 8.9995 8.20155V14.0219H6.78116C3.04221 14.0219 0 17.0641 0 20.8031V43.6118C0 45.0748 0.804802 46.4032 2.10148 47.0804C2.66132 47.3728 3.28228 47.5273 3.91448 47.5268C4.71489 47.5268 5.49231 47.2804 6.14896 46.8227L9.87618 44.2274C11.1161 43.3639 12.5737 42.9068 14.085 42.9068H37.1441C40.883 42.9068 43.9253 39.8646 43.9253 36.1256V35.315H45.662C47.5615 35.315 49.3936 35.8899 50.9524 36.9754L55.5523 40.1785C56.3347 40.7232 57.2607 41.017 58.2141 41.017C58.9671 41.017 59.7069 40.8337 60.3738 40.485C61.9184 39.6783 62.8777 38.0956 62.8777 36.353C62.8777 35.9569 62.5569 35.6362 62.1609 35.6362C61.7649 35.6362 61.4441 35.9569 61.4441 36.353C61.4441 37.5748 60.7933 38.6486 59.7103 39.2138C58.6342 39.7756 57.3678 39.6954 56.3718 39.0016L51.7718 35.7985C49.971 34.5444 47.8564 33.8809 45.662 33.8809H17.201C13.4689 33.8809 10.4336 30.845 10.4336 27.1134V8.20155C10.4336 4.46944 13.4694 1.43407 17.2015 1.43407H54.6766C58.4088 1.43407 61.4441 4.46993 61.4441 8.20155V30.3517C61.4441 30.7477 61.7649 31.0685 62.1609 31.0685ZM17.201 35.3154H42.4912V36.1261C42.4912 39.0749 40.0924 41.4732 37.1441 41.4732H14.0845C12.2784 41.4732 10.5387 42.0193 9.05671 43.0515L5.32949 45.6463C4.56478 46.1788 3.59129 46.2409 2.76547 45.8096C1.93426 45.3755 1.43407 44.5496 1.43407 43.6118V20.8031C1.43407 17.8543 3.83283 15.456 6.78165 15.456H8.99999V27.1139C8.99999 31.6361 12.6788 35.3154 17.201 35.3154Z" fill="#5D3A99"/>
</svg>
