<svg width="44" height="50" viewBox="0 0 44 50" fill="none" xmlns="http://www.w3.org/2000/svg">
<path d="M29.4462 50H3.3743C1.51202 50 0 48.4752 0 46.5972V3.4028C0 1.52478 1.51202 0 3.3743 0H29.4462C31.3085 0 32.8205 1.52478 32.8205 3.4028V9.97292C32.8205 10.2967 32.5578 10.5616 32.2368 10.5616C31.9157 10.5616 31.653 10.2967 31.653 9.97292V3.4028C31.653 2.17238 30.6605 1.17155 29.4404 1.17155H3.36846C2.14835 1.17155 1.15596 2.17238 1.15596 3.4028V46.5972C1.15596 47.8276 2.14835 48.8285 3.36846 48.8285H29.4404C30.6605 48.8285 31.653 47.8276 31.653 46.5972V36.271C31.653 35.9473 31.9157 35.6823 32.2368 35.6823C32.5578 35.6823 32.8205 35.9473 32.8205 36.271V46.5972C32.8205 48.4752 31.3085 50 29.4462 50Z" fill="#5D3A99"/>
<path d="M23.8652 3.4028C23.8652 3.92088 23.4507 4.34475 22.9312 4.34475C22.4116 4.34475 22.003 3.92676 22.003 3.4028C22.003 2.87884 22.4174 2.46085 22.9312 2.46085C23.4449 2.46085 23.8652 2.87884 23.8652 3.4028Z" fill="#5D3A99"/>
<path d="M20.1406 3.99152H12.6916C12.3705 3.99152 12.1078 3.7266 12.1078 3.4028C12.1078 3.07901 12.3705 2.81408 12.6916 2.81408H20.1406C20.4617 2.81408 20.7244 3.07901 20.7244 3.4028C20.7244 3.7266 20.4617 3.99152 20.1406 3.99152Z" fill="#5D3A99"/>
<path d="M22.9312 47.1859H9.89523C9.57414 47.1859 9.31144 46.921 9.31144 46.5972C9.31144 46.2734 9.57414 46.0085 9.89523 46.0085H22.9312C23.2522 46.0085 23.5149 46.2734 23.5149 46.5972C23.5149 46.921 23.2522 47.1859 22.9312 47.1859Z" fill="#5D3A99"/>
<path d="M39.6917 30.2072C39.5925 30.2072 39.4932 30.1837 39.3998 30.1307C39.2189 30.0247 39.1079 29.8305 39.1079 29.6244V16.6255C39.1079 16.4135 39.2189 16.2192 39.3998 16.1192C39.5808 16.0132 39.8026 16.0132 39.9836 16.1192C42.4589 17.5674 44 20.252 44 23.1249C44 25.9979 42.4589 28.6824 39.9836 30.1307C39.896 30.1837 39.791 30.2072 39.6917 30.2072ZM40.2755 28.5058C41.8751 27.1989 42.8383 25.2208 42.8383 23.119C42.8383 21.0173 41.8809 19.0392 40.2755 17.7323V28.5058Z" fill="#5D3A99"/>
<path d="M39.6917 37.7958C39.6042 37.7958 39.5107 37.7723 39.429 37.7311L24.6534 30.2838H15.482C14.1335 30.2838 13.036 29.177 13.036 27.817V18.4269C13.036 17.067 14.1335 15.9602 15.482 15.9602H24.6534L39.429 8.51289C39.6099 8.42458 39.8259 8.43047 39.9952 8.53644C40.1645 8.64241 40.2697 8.83079 40.2697 9.03685V37.2071C40.2697 37.4132 40.1645 37.6016 39.9952 37.7075C39.9018 37.7664 39.7968 37.7958 39.6917 37.7958ZM15.482 17.1376C14.7757 17.1376 14.2036 17.7146 14.2036 18.4269V27.817C14.2036 28.5294 14.7757 29.1063 15.482 29.1063H24.7935C24.881 29.1063 24.9744 29.1299 25.0561 29.1711L39.1137 36.2593V9.99058L25.0561 17.0788C24.9744 17.12 24.8869 17.1435 24.7935 17.1435H15.482V17.1376Z" fill="#5D3A99"/>
<path d="M22.9312 41.5519C21.5826 41.5519 20.4851 40.4451 20.4851 39.0851V29.695C20.4851 29.3713 20.7478 29.1063 21.0689 29.1063L24.7935 29.1063C25.1146 29.1063 25.3773 29.3713 25.3773 29.695V39.0851C25.3773 40.4451 24.2797 41.5519 22.9312 41.5519ZM21.6527 30.2838V39.0851C21.6527 39.7975 22.2248 40.3744 22.9312 40.3744C23.6375 40.3744 24.2097 39.7975 24.2097 39.0851V30.2838H21.6469H21.6527Z" fill="#5D3A99"/>
<path d="M24.7935 30.2838C24.4724 30.2838 24.2097 30.0188 24.2097 29.695V16.5489C24.2097 16.2251 24.4724 15.9602 24.7935 15.9602C25.1146 15.9602 25.3773 16.2251 25.3773 16.5489V29.695C25.3773 30.0188 25.1146 30.2838 24.7935 30.2838Z" fill="#5D3A99"/>
<path d="M29.4462 50H3.3743C1.51202 50 0 48.4752 0 46.5972V3.4028C0 1.52478 1.51202 0 3.3743 0H29.4462C31.3085 0 32.8205 1.52478 32.8205 3.4028V9.97292C32.8205 10.2967 32.5578 10.5616 32.2368 10.5616C31.9157 10.5616 31.653 10.2967 31.653 9.97292V3.4028C31.653 2.17238 30.6605 1.17155 29.4404 1.17155H3.36846C2.14835 1.17155 1.15596 2.17238 1.15596 3.4028V46.5972C1.15596 47.8276 2.14835 48.8285 3.36846 48.8285H29.4404C30.6605 48.8285 31.653 47.8276 31.653 46.5972V36.271C31.653 35.9473 31.9157 35.6823 32.2368 35.6823C32.5578 35.6823 32.8205 35.9473 32.8205 36.271V46.5972C32.8205 48.4752 31.3085 50 29.4462 50Z" fill="#5D3A99"/>
<path d="M23.8652 3.4028C23.8652 3.92088 23.4507 4.34475 22.9312 4.34475C22.4116 4.34475 22.003 3.92676 22.003 3.4028C22.003 2.87884 22.4174 2.46085 22.9312 2.46085C23.4449 2.46085 23.8652 2.87884 23.8652 3.4028Z" fill="#13E7CF"/>
<path d="M20.1406 3.99152H12.6916C12.3705 3.99152 12.1078 3.7266 12.1078 3.4028C12.1078 3.07901 12.3705 2.81408 12.6916 2.81408H20.1406C20.4617 2.81408 20.7244 3.07901 20.7244 3.4028C20.7244 3.7266 20.4617 3.99152 20.1406 3.99152Z" fill="#13E7CF"/>
<path d="M22.9312 47.1859H9.89523C9.57414 47.1859 9.31144 46.921 9.31144 46.5972C9.31144 46.2734 9.57414 46.0085 9.89523 46.0085H22.9312C23.2522 46.0085 23.5149 46.2734 23.5149 46.5972C23.5149 46.921 23.2522 47.1859 22.9312 47.1859Z" fill="#13E7CF"/>
<path d="M39.6917 30.2072C39.5925 30.2072 39.4932 30.1837 39.3998 30.1307C39.2189 30.0247 39.1079 29.8305 39.1079 29.6244V16.6255C39.1079 16.4135 39.2189 16.2192 39.3998 16.1192C39.5808 16.0132 39.8026 16.0132 39.9836 16.1192C42.4589 17.5674 44 20.252 44 23.1249C44 25.9979 42.4589 28.6824 39.9836 30.1307C39.896 30.1837 39.791 30.2072 39.6917 30.2072ZM40.2755 28.5058C41.8751 27.1989 42.8383 25.2208 42.8383 23.119C42.8383 21.0173 41.8809 19.0392 40.2755 17.7323V28.5058Z" fill="#13E7CF"/>
<path d="M39.6917 37.7958C39.6042 37.7958 39.5107 37.7723 39.429 37.7311L24.6534 30.2838H15.482C14.1335 30.2838 13.036 29.177 13.036 27.817V18.4269C13.036 17.067 14.1335 15.9602 15.482 15.9602H24.6534L39.429 8.51289C39.6099 8.42458 39.8259 8.43047 39.9952 8.53644C40.1645 8.64241 40.2697 8.83079 40.2697 9.03685V37.2071C40.2697 37.4132 40.1645 37.6016 39.9952 37.7075C39.9018 37.7664 39.7968 37.7958 39.6917 37.7958ZM15.482 17.1376C14.7757 17.1376 14.2036 17.7146 14.2036 18.4269V27.817C14.2036 28.5294 14.7757 29.1063 15.482 29.1063H24.7935C24.881 29.1063 24.9744 29.1299 25.0561 29.1711L39.1137 36.2593V9.99058L25.0561 17.0788C24.9744 17.12 24.8869 17.1435 24.7935 17.1435H15.482V17.1376Z" fill="#5D3A99"/>
<path d="M22.9312 41.5519C21.5826 41.5519 20.4851 40.4451 20.4851 39.0851V29.695C20.4851 29.3713 20.7478 29.1063 21.0689 29.1063L24.7935 29.1063C25.1146 29.1063 25.3773 29.3713 25.3773 29.695V39.0851C25.3773 40.4451 24.2797 41.5519 22.9312 41.5519ZM21.6527 30.2838V39.0851C21.6527 39.7975 22.2248 40.3744 22.9312 40.3744C23.6375 40.3744 24.2097 39.7975 24.2097 39.0851V30.2838H21.6469H21.6527Z" fill="#5D3A99"/>
<path d="M24.7935 30.2838C24.4724 30.2838 24.2097 30.0188 24.2097 29.695V16.5489C24.2097 16.2251 24.4724 15.9602 24.7935 15.9602C25.1146 15.9602 25.3773 16.2251 25.3773 16.5489V29.695C25.3773 30.0188 25.1146 30.2838 24.7935 30.2838Z" fill="#5D3A99"/>
</svg>
